<svg xmlns="http://www.w3.org/2000/svg" viewBox="0 0 287.9 328.5"><defs><style>.cls-1{fill:#fff;}.cls-2{fill:#293549;}.cls-3{fill:#3bab5e;}.cls-4{fill:#f7f8f9;}.cls-5{fill:#424143;opacity:0.4;}.cls-5,.cls-6{isolation:isolate;}.cls-6{fill:#221f1f;opacity:0.1;}</style></defs><title>agencia.svg</title><g id="Capa_2" data-name="Capa 2"><g id="Pagina_Inicial_movil" data-name="Pagina Inicial movil"><g id="La_agencia" data-name="La agencia"><path class="cls-1" d="M0,88.2A14,14,0,0,1,6.2,77.4L137.7,1.5a13.8,13.8,0,0,1,12.5,0L281.6,77.4a13.8,13.8,0,0,1,6.3,10.8V240.1a13.8,13.8,0,0,1-6.3,10.8L150.2,326.8a13.8,13.8,0,0,1-12.5,0L6.2,250.9A14,14,0,0,1,0,240.1Z"/><path class="cls-2" d="M68.7,55a8.8,8.8,0,0,1,8.9-8.8H210.7a8.7,8.7,0,0,1,8.8,8.8V273.4a8.8,8.8,0,0,1-8.8,8.9H77.6a8.9,8.9,0,0,1-8.9-8.9Z"/><rect class="cls-3" x="77.6" y="77.1" width="133.1" height="166.78"/><path class="cls-4" d="M149.5,60.6h-11c-.3,0-.5-.1-.5-.5s.2-.5.5-.5h11c.4,0,.5.2.5.5S149.9,60.6,149.5,60.6Z"/><path class="cls-4" d="M153.1,63.1h-18a.5.5,0,0,1-.5-.5c0-.3.1-.5.5-.5h18a.5.5,0,0,1,.5.5C153.6,62.9,153.5,63.1,153.1,63.1Z"/><path class="cls-4" d="M149.5,65.4h-11c-.1,0-.5-.2-.5-.5a.5.5,0,0,1,.5-.5h11c.4,0,.5.2.5.5S149.9,65.4,149.5,65.4Z"/><path class="cls-4" d="M144.1,274.2a9.5,9.5,0,0,1-9.5-9.7,9.4,9.4,0,0,1,9.5-9.5,9.5,9.5,0,0,1,9.5,9.5A9.6,9.6,0,0,1,144.1,274.2Zm0-18.4a8.8,8.8,0,1,0,8.7,8.7A8.8,8.8,0,0,0,144.1,255.8Z"/><rect class="cls-4" x="88.6" y="85.9" width="110.9" height="31.38"/><rect class="cls-5" x="127.5" y="127.7" width="72.1" height="31.38"/><rect class="cls-5" x="88.6" y="127.3" width="31.7" height="31.71"/><rect class="cls-5" x="127.5" y="166.8" width="72.1" height="31.38"/><rect class="cls-5" x="88.6" y="166.5" width="31.7" height="31.71"/><rect class="cls-5" x="127.5" y="205.7" width="72.1" height="31.38"/><rect class="cls-5" x="88.6" y="205.6" width="31.7" height="31.71"/><path class="cls-6" d="M281.6,77.4,150,1.5A11.5,11.5,0,0,0,144.1,0V328.5A11.5,11.5,0,0,0,150,327l131.5-75.9a14,14,0,0,0,6.2-10.9V88.2C287.9,84.3,285.1,79.4,281.6,77.4Z"/></g></g></g></svg>