<svg xmlns="http://www.w3.org/2000/svg" viewBox="0 0 348.1 317.4"><defs><style>.cls-1{fill:#d1ecfb;}.cls-2{fill:#57d357;}.cls-3{fill:#c1e2de;}.cls-4{fill:#0e303f;}.cls-5{fill:#fff;}.cls-6{fill:#103754;}.cls-7{fill:#fd6120;}.cls-8{fill:#b7c9cb;}</style></defs><title>mundo</title><g id="Capa_2" data-name="Capa 2"><g id="Pagina_inicial_escritorio" data-name="Pagina inicial escritorio"><g id="Porque_somos_tu_mejor_elección" data-name="Porque somos tu mejor elección"><path class="cls-1" d="M189.3,0C101.8,0,30.6,71.2,30.6,158.7s71.2,158.7,158.7,158.7,158.8-71.1,158.8-158.6S276.8,0,189.3,0Z"/><path class="cls-2" d="M339.7,202c-2.1,0-4.8,1-4.8,1.7s-2.9,1.9-3.9,2.4-2.7,3.3-3.2,4.2-2.7.7-3.5,1-2.7,1.8-2.7,2.6-.4.7-1-.2l-1.1,1.1-1.4,1.5c-.8,2.4-3.3,5.5-4.2,5.7s-1,4.5-1,6.2a8.6,8.6,0,0,0,1.4,4.7v1.3l.3,2.8a4.5,4.5,0,0,0,1.6,4.3c.4.4,4.3-.7,5.8-1l2-.8a159.3,159.3,0,0,0,16.4-37.9Z"/><path class="cls-2" d="M77.6,205.9c-.2.5,2.6,3.4,3.6,4.4s3.5,5.7,3.9,7.3a12.4,12.4,0,0,1,0,4.7,10.5,10.5,0,0,0,.6,2.4c.1.5-.9,5.1-.6,7s-2.2,7.7-2,10.6,1.3,6.7,1.8,6.4.7,2.7-.1,3-2,2.6-1.4,2.7,0,2.4.1,3.3.9,7,1,8.5,2.3,5.1,2.8,6.4.9,3.5,1,3.9l.4.8a8.8,8.8,0,0,1,2.2,1c.5.3,3.9.1,5.1-.1s.1-1.3-.4-1.7-.9-3.2-1.5-3.5-.8-3.6-.3-4.4,2.5-2,2.7-2.6.3-3.6-.2-4,.1-4-.2-5.9,3-3.4,3.3-4.7,4-3,4.8-3.7,1.6-4.8,1.1-5.6,1.4-1.6,2.2-1.6a6.6,6.6,0,0,0,2-.6c.3,0,1.3-1.8,1.7-2.1s1.6-4.7,2.6-5.4a8,8,0,0,0,1.7-4,9.6,9.6,0,0,1,1.9-3.6c.5-.7,4-2.3,4.7-2.5s1.6-6,1.8-8a49.2,49.2,0,0,1,1.4-5.5c0-.7,1.1-1.3,1.3-1.5s1.1-2.8,1.6-3.4,2.6-3.1,2.6-3.7a19.8,19.8,0,0,1,.6-3.2v-3.5c-.5-1.7-2.5-3.9-2.9-3.3s-2.7-1.5-3.8-1.9a14.3,14.3,0,0,0-4.6-.7c-.6,0-3-2-4.2-2.3a37.4,37.4,0,0,1-4.3-1.1c-.5-.4-1.2-4.5-3.4-5.9s-6.2-4.5-6.7-5.7-4.6-3.5-6-4.3-3.3-.9-3.5-.6-2-2.3-2.8-2.9-3.4-1.3-3.5-.7-1.8.2-2.2-.3-1.7.3-2.4.5-2.7,3.4-3.7,4.2-2.2-.7-2.9-1a7.5,7.5,0,0,0-3.8,1c-.6.5-2.1-3.4-1.8-5.2s-1.6-5.4-3.2-5.5-1.9-3.9-1.7-5.3-2.7-2.2-3.5-2.3-2.7,1.8-3,2.8-7.3-1.3-6.5-5.5,4.1-8.5,4.9-9,5.3-.7,6.3-.1a1.7,1.7,0,0,0,2-.2,13.4,13.4,0,0,1,4.9.4c1.1.5,2.7,4.7,3.8,5.2s1.5-2.8,1.7-3.6a10,10,0,0,0-.8-3.3c-.2-.6,1.8-5.7,3.6-6.5s3.5-3.8,3.3-4.2,1.3-.9,1.7-1.2,0-4.3.5-5.2a20.3,20.3,0,0,1,5-3.2c1-.4,1.7-3,1.3-3.5s2.6-3,4.2-3.6,2.9.9,2.6,1.1,2.3-1.3,3.3-1.9,0-2.6-.7-3.2-.3-2.7.5-2.9a3.1,3.1,0,0,0,1.3-2.5c-.2-.4,3.4.3,4.8-.7s.3,2.4-.6,3.9a1.6,1.6,0,0,0,.4,2.2,1.7,1.7,0,0,0,1,.3,1.4,1.4,0,0,1,1.5,1.1c.1.3,1.5-.4,2.4,0s1.5-1.2,1.5-2-2.2-2.3-2.6-3.4a60.1,60.1,0,0,1-.4-7.4c0-1-1.5-2.8-1.9-2.5s-1.4-2.8-2.2-3.5a3.7,3.7,0,0,1-.9-2.8c0-.4-2.5-3.2-3.2-4.4s-1.5-1-1.6-.5-1.8.7-2.6.6-1.4-3-1.4-4-3.3-1.2-3.9-2.2-2.7-.4-3.1-1a3.9,3.9,0,0,0-2.6-.9c-.3.2-.2,8.1-.6,10.2s-2.1,4-2.8,3.8-.3,1.5.1,1.4-1.3,2.3-1.5,3.9-1.8,0-2-1.5-1.9-3.4-2.2-3-1.4-.5-1.8-.2-3.5-1.7-4.7-2.4-1.8-4.3-2.6-4.7-.2-.8-.2-1.3,2.4-2.8,3.1-3.6,3.3-4.2,4.4-5,1.8-2.6,1.6-3,4.4-1.8,5.7-2.1,2.2-3.9,2.5-4.9a4.1,4.1,0,0,0-1.4-3.1c-.6-.2,1.7-.4,2.5.1s3.1-.7,4.1-.2l4.2,2.5-.2,2.5-.6,4.3c-3.6,1.5-4.6,4.1-3.4,4s7.1,2.5,8.7,3.7,2.2-1.7,2.6-2.6a7.9,7.9,0,0,0,0-4.3c-.4-.5,1.8-.3,2.5.3s1.4-.6,1.9-1,.6-2.6,1-3-1-.9-1.2-1.6-2.6-1.7-3.4-2.2a2.1,2.1,0,0,1-.6-2.5c.4-.4-.2-2.6-.6-3.3s-3.1-1.4-4-1.4-1.9-2-2.4-2.4a16.3,16.3,0,0,0-4.9-.4c-.8.2-2.4-2.6-3.9-1.6s-3-1-3.7-1.4-4.1,3.3-4,5.8,1.3,5,1.9,5.1-.1,2.4-.7,3.1-2.1-.7-1.5-1.2-1.5-3.3-2.2-4.4-2.3-1.4-3.4-1.9l-2,2.3a6.5,6.5,0,0,1,.2,3.1c-.5,1.6-1.8,1.8-1.8,1.1a2.2,2.2,0,0,0-1.5-.6,156.7,156.7,0,0,0-35.7,83,6.8,6.8,0,0,1,1.8,2.6c.4,1.4,2.8,2.3,3.3,2.6s.6-2.6.2-3.4.6-1.1.6-.7,2.3,3.1,3,4.1,1.4,7,2.2,8.2,7.7,4,10,4.5a12.6,12.6,0,0,1,5.4,3.6c.5.7,3.5,1.1,4,1.4l2.8,2.7a4.9,4.9,0,0,1,1.1,2c0,.3,3.9,1.8,4.9,2.8a2.4,2.4,0,0,0,2.9.4c.2-.5,1,2,1.5,3a5.4,5.4,0,0,1,.1,3.3c-.4.3-.8,4.2-1.5,5s-2.1,6.5-1.7,7.6a9,9,0,0,0,2.9,3.8.9.9,0,0,1,.3,1.3l-.4.3c-.5,0-.3,5.6,1.2,6.4S77.8,205.6,77.6,205.9Z"/><path class="cls-2" d="M85.3,42.3c1.9-.3,5.1-.9,5.3-1.3a5.4,5.4,0,0,0-.1-2.2h.9c.7,0,1.9-3.9,2.6-4.8s5-2.3,6.1-2.9,3.3-2.7,4.1-3,2.1-2.3,1.9-2.7,3-2.2,4.1-2.7,1.8-1.8,1.4-1.9-6.9,3.4-12.9,6.8A186.3,186.3,0,0,0,79.1,43.2Z"/><path class="cls-2" d="M200.2,239.9c2-1.1,5.5-6.2,6.7-7.3s1.9-4.9,2.1-5.7a7.2,7.2,0,0,1,2.5-2.4c.6-.2,2.7-8.6,4.5-10.6s3.9-10.8,3.6-14.1,1.2-9.4,1.6-10.9a19.2,19.2,0,0,1,3.3-4.6,81,81,0,0,0,6.4-9.3c1.4-2.3,2.8-7.3,2.4-8.5s-3.3-2.1-3.9-1.4-3.4,1-4.3,1-3-4.9-4.2-5.8-2.4-6.6-3.2-7.6-2.2-3-3.4-4.4-.8-3.5-.9-4.3,1.2.4,1.4,1.7,3.6,5.9,4.6,7.5,3.8,6.8,4.5,8.4,6.7.8,8.7-.2,4.5-2.5,4.6-3,3.2-2,4.1-2.7,1.6-4.3,2.2-4.9-.5-4.1-1.2-5.1-3.7-1.8-4.4-1.5-1.9-2.3-2.5-3.3-2.9-2.3-3.1-3a2.6,2.6,0,0,1,1-2c.4-.2,4.8,2.8,6.1,4.4a35,35,0,0,1,2.9,4.9c.3.6,3.8.7,4.6.2a1.2,1.2,0,0,1,1.8.1v.2h1.1l3.9-.6a8.2,8.2,0,0,1,2.2,4.1,4.5,4.5,0,0,0,1.9,2.2c.6.1,1.2,2.6,1.4,3.3a46,46,0,0,1,2.9,5.9,31.2,31.2,0,0,0,2.7,5.5,10.9,10.9,0,0,1,.8,3.9,2.8,2.8,0,0,0,2.3,1.8c.8-.1,2.6-5.6,3.1-7.6s1.8-3.8,2.2-3.8.6-1.1.6-1.6,2.2-.3,2.4-.9.8-4.2,1.6-4.8a42.5,42.5,0,0,1,4.6-2.7c.9-.4,3.5,1.8,4.1,2.8a8,8,0,0,1,.8,4c-.2.4,1.3,2.6,2.6,2.6s1.7,1.8,1.9,2.3,1.8,2.4,2.1,3.2a7.3,7.3,0,0,1,0,3.6,19.7,19.7,0,0,0,.1,4.2c.3.8,4.4,5,6,6.3s2.3-2.7,1.5-3.8-3.6-4-4.1-4.8-.7-4.2-.5-5.1,2.4.4,3.2,1.1a6.3,6.3,0,0,1,2,2.6c0,.5,5.6-2.6,5.9-5.9s2-7.2,2.1-8.1a2.3,2.3,0,0,0-1-2.2c-.5-.1.8-2.5,2.4-2.5s5.2-4.1,6.2-5.8a12.2,12.2,0,0,1,2.8-3.2,21.9,21.9,0,0,0,1.6-5.7c.2-1.6-.9-4.1-1-5a17.4,17.4,0,0,0-1.8-3.3,6.4,6.4,0,0,1-.5-3.3c.1-.4,1.6-.8,1.7-1.3s1.7-2,1.6-2.8.9,1,1.7,1.6,1.5,4.6,2.4,5,4.6-4.2,4.1-7.3,1.1-7,2-7.3,2.4-2.8,3.5-4.5a159.3,159.3,0,0,0-39.1-61.6h-.6l-1.4-.2c-2.3-.5-3.5-2.9-3.2-3.4a1.1,1.1,0,0,0,0-1.1c-1.2-1.1-2.5-2.3-3.8-3.3h-2.9a10.4,10.4,0,0,1-4.8-1.5c-.4-.4-2.3.5-2.4,1.5s-3.2,1.4-3.4,2.2a1.8,1.8,0,0,1-2.2.4c-.2-.4-3.2,1.1-4.5,1.2a18.6,18.6,0,0,0-4.7,1.6,6.9,6.9,0,0,0-2.4,2.4,6.8,6.8,0,0,1-2.6,1.8c-.6.2-.5,2.9.2,3.3s-1.4-.3-2.4-.8-1.9,1.2-2.3,1.7-1.1-.3-1.1-1.1-2.4-1.4-2.7-.8-1.9-.2-2.6-.6-3.6,2.8-4.8,3.9-6.4,1.9-7.3,1.6-1.9,2.3-1.1,2.5h-3.2a25.4,25.4,0,0,0-7.5,2.9,1.4,1.4,0,0,1-1.8-.2.9.9,0,0,1-.3-.6c0-.7-1.8-1.3-2.3-1.4s-1.6,3.5-2.5,4.2-2-2.8-4.3-3.5-5.7-2.8-6.8-3-2.9-2.3-3.5-3-3.4-1-4.3-1-3.9,1.7-4.7,2.3-1.9.5-2.4.8-3.8,3.4-5,4.4-3.6,5.4-4.2,6.5a2.6,2.6,0,0,1-2.2,1.3,2.1,2.1,0,0,0-.8,1.6c0,.5-3.8,2.4-4.2,4.1s.4,5.7.4,7.1,1.4,4.2,2.4,4.2.6,2.4.3,3.1.6,1.4.5,1.9-2.6,1.4-3.4,1.6a5.5,5.5,0,0,0-2.3,2.9c-.1.5-2.6,1-3.5,1.8a6.7,6.7,0,0,1,.7-1.8,3.3,3.3,0,0,0-.6-2.9c-.3-.3-.6-4.9-1.3-5.9a18.7,18.7,0,0,0-2.6-3c-.3-.3.2-1.5.6-2s-2.2-.8-2.8-.5-1,4.9-1.2,6.2a4.2,4.2,0,0,0,1.6,3.2c.4.1.2,2.2-.6,2.4s-1.6,3.3-1.1,4.1-.6,2.1-1.1,2.5,3.2.1,5,.1a4,4,0,0,1,2.8.8c-.1.1-3.2.6-3.8,1.2s-2.6,2.1-2.9,2.7.7,1.7,1.5,1.7,1.8,3,2.5,3.5a2.7,2.7,0,0,1,.1,2.6c-.2.5-4.5-.2-5.9.2s-3.6,3.6-3.7,4.9a28.4,28.4,0,0,0,.5,5.8c.1,1,3.4,1.6,4.1,2s3.7,0,4.4.4,2.8-3.2,3.2-4.8,3.8-4.6,4.5-5.7,4.2-.9,5.1-1.5.4,2.7.8,4.6,3.9,1.6,3.3-.1.3-2.4.5-1.9,3.4,2,4.1,2.9.4,2.9-.3,2.9-.8,2.2,0,2.6,1.9-2.6,2.7-3,1.4-2.2,1.1-2.3.7-1.7,1.1-1.1-1.7-3.3-3.2-4.8-.3-.8,2.2,1.3l1.8,2.6c.4.4.8,1.8,1.2,2.2l.4.7a18.7,18.7,0,0,1,.7,4,2.6,2.6,0,0,0,2.3,1.8,1.6,1.6,0,0,1,1.4.5c-.1.1.5,1.7,1.3,1.7s1.3-2.2.4-2.2-.7-3.2-.8-4.6.6-2.6.9-2.6,0,2.9,0,3.6a9,9,0,0,0,.8,2.8l.9.7,1.9,1.5c2.9-.8,6.8-.1,6.6.5s2,.6,2.1-.3.2.1.2.7-1.8,3.2-2.1,4.4-7,.3-9.8.1-7.1.7-7.3,1.6-4.7-2-6.8-2.8-3.6-3.9-4-4.3.4-1.4.2-2.1-4.8-.6-6.2-.2-8.3,1.3-9.9,2-4.1,0-4.9-.2-2.7,2.2-3.6,2.5-2,3.7-2.6,7.2l-1.3,2.4-.8,1.6c-2.2,1.7-4.7,7.6-5.5,8.8s-1.4,9.6-1.4,12.5,2.4,8.7,3.2,10.4,4.9,5.3,6.4,6.2,6,1,7.5,1a4.4,4.4,0,0,0,3.8-3.2l2.1.3h1.1c0,1.2,3.3,2.1,4.1,2.6a6,6,0,0,0,3.5-.1c.6-.1,1.4,5.6.9,7.3s1.2,7.5,1.6,9.3,2.5,6.7,2.6,8.4-1.1,7.5-1.3,9.5,2.5,7.7,3.2,9.6a42.1,42.1,0,0,1,1.2,7.1c0,.9,3,6.9,3.7,9.2S198.2,241.1,200.2,239.9Z"/><path class="cls-2" d="M331,167.8c.1.5,2-1,3.2-1.2s1.8-3.2.9-3.4-1.9-2.7-2.6-2.9-1.8,1-1.8,1.9-2.1,1.3-2.6,2.1-.3,1.3,0,1.3A10.1,10.1,0,0,1,331,167.8Z"/><path class="cls-2" d="M328.7,184.6c.6-.2,0-3.2-1.2-3.4s-4.5,4-3.9,6.4,1.2,2.3,1.6,1.7,2.3.3,2.8.4.6-.3,0-1.2S328.1,184.8,328.7,184.6Z"/><path class="cls-2" d="M322.2,181.6c.1-1,.4-4.4.5-5.1s-1.9-2.6-2.9-3-4.1,6.5-6.4,7.8-3.1,5.5-2.5,6.4,5.4,1.5,6.2,2.2,1.7-.2,2.3-.3.3-.4.1-.5,1.6-2.1,1.9-3.3A31,31,0,0,0,322.2,181.6Z"/><path class="cls-2" d="M309.2,193.2c-1.7-.7-3.9.3-4,1s6.9,1.8,9.3,2.4,3.7.8,3.3.4Z"/><path class="cls-2" d="M323.7,147c.6-.8-.8-4.5-1.5-3.7s-.1,3,0,3.8S323.1,147.8,323.7,147Z"/><path class="cls-2" d="M327.8,154.9c.5-.9-.5-1.9-2.1-2.2s-1.2,4.2-.5,4.8S327.5,155.9,327.8,154.9Z"/><path class="cls-2" d="M335.9,183.5c1.8,1.2,5.9.7,6-1.7C340.1,180.5,335.8,180.7,335.9,183.5Z"/><path class="cls-2" d="M334.9,126.9a2.5,2.5,0,0,0-.9,2.4h-.4c-.6,0-.7,2.4,0,2.8s2.2-1.8,3-2.4a3.9,3.9,0,0,1,2.6-.7,6.9,6.9,0,0,0,3.1-.9,2.2,2.2,0,0,0,.9-1c-.3-1.7-.8-3.4-1.1-5.2l-2.1,1.4Z"/><path class="cls-2" d="M304.3,186.3a23.4,23.4,0,0,0-4.8-5.6l-.7-1.2-.8-1.4c-.7-1.5-2.9-2.6-3.2-3.1s-.9,1.3-1.7.8l2.4,1.7c2.1,1.5,6.2,11.9,7.2,12.6S305,187.8,304.3,186.3Z"/><path class="cls-2" d="M271.6,169.5c-.6,1.2,2.9,3.7,3.3,3.1a8,8,0,0,0-1.1-4C273.1,168,272.2,168.4,271.6,169.5Z"/><path class="cls-2" d="M223.6,224.8c.1,1.2,2.7,2.1,3.3,1.9s2.8-3.9,3-4.9a26.3,26.3,0,0,0,.6-3.9,4.1,4.1,0,0,1,.5-1.9,7.5,7.5,0,0,0,1.1-2.8c.2-1.3-1.5-7.8-1.5-9s-1.3.6-1.6,1.7-3.5,3.6-4.3,4.5-1.5,4.2-1.2,4.8a6.6,6.6,0,0,1-.6,3.4C222.5,219.3,223.4,223.6,223.6,224.8Z"/><path class="cls-2" d="M106.7,270h2.1C109.1,267.6,106.6,267.9,106.7,270Z"/><path class="cls-2" d="M164.9,24.2a7.7,7.7,0,0,1-3.7-.8,9.1,9.1,0,0,0-4.9-.4c-1,.5-.3-2.5,1-2.7s.3-2.3-1.2-2.3-5.3-.5-6.1-.3a20.6,20.6,0,0,1-3.2-.7c-.5-.1-5.1,1.4-7.1,1.3a48,48,0,0,0-8.5.4c-1.1.2-1.9,2.5-1.7,3.3s-5,.8-6.6.8-10.4,1.8-12.7,3.1-4,4.4-3.3,4.4-1.2,1.9-2.5,2.3-4.1.6-4.8,1.3.7,1.1.9,1.6,1-.4,1.8.1,3.4.6,4,.9-2.1.8-3.4.9-1,2.6,0,3.1,3.9.7,4.1.2,3.3.5,4.7.7,2.4,3.6,2.9,4.4a14.3,14.3,0,0,1,.4,4.1c0,.8,2.4,2,2.9,1.6s.3,1.1-.7,1-.4,2.7.9,3.2.3,2.1-.4,2.7-.3,2.2-1,2.9,2.6,6.4,2.5,9.3,1.9,5.4,2.5,5.4,3.1.6,3.5,1.2,1.4-.4,1.9-.9a18.6,18.6,0,0,0,2.2-3.2c.8-1.2,2.4-7.2,2.6-7.8s3-.3,3.6-.6a23.2,23.2,0,0,0,3-2.2c.5-.4,4.5-2,5.6-2.8s2.9-4.1,3.8-4.9-.5-.5-1.5-1.2a1.1,1.1,0,0,1-.5-1.5l.3-.3c.2-.3,3.5.5,4.5.9s3.2-1,2.4-1.6-.3-.6,0-.3.8-2,.5-2.4,3.2-3.1,2.6-5.6.9-5.1,1.9-5.1.7-2.9-.5-3.1,0-.5.4-.9a7.1,7.1,0,0,0,.7-3.5c-.2-.4,1.8-1,2.2-1.6a10.6,10.6,0,0,1,3.5-1.8C165.1,26.5,165.7,24.2,164.9,24.2Z"/><path class="cls-2" d="M185.4,26.5c-1.1-.4-3.4.9-3.1,1.6s-1.8-.9-3.3-.1-1.9,3.4-1.2,3.7,1.1,2.4,1.1,2.9,2.9.1,3.7-.5.5,2.1-.2,2.9.3,2.1,1.1,2.2,1.8,2,2.7,2,2.3-3.2,2.5-4.3,3.1-.3,4.4.1,1.7-4.4.3-5.2-3.1-.3-3.7-.9a3.6,3.6,0,0,0-2.1-1.1C187.1,29.7,186.5,26.8,185.4,26.5Z"/><path class="cls-2" d="M196.5,28.8a8.3,8.3,0,0,0,5.2-2.1c.6-.5-6.1-1.8-8.8-1.9s-4.5.2-4.5.8S194.3,28.4,196.5,28.8Z"/><path class="cls-2" d="M155.6,89.3c-.5-.2-.9,2-.8,2.8s2.2.8,3.1.5a1.7,1.7,0,0,0,1.5-1.6c0-.6-1.3-3.9-1.7-3.9S156.2,89.6,155.6,89.3Z"/><path class="cls-2" d="M162.2,63.4c-.4-.8-3.8-.6-4.7-.6a12.8,12.8,0,0,1-4-1.5c-.6-.6-.8,2.1-1.6,2.5s.4.8.6.6,0,1.3-.4,1.9,2.3.9,2.6,1.8a2.4,2.4,0,0,0,2.4,1.3c1-.1,3.1-1.3,3.9-1.4S162.7,64.4,162.2,63.4Z"/><path class="cls-2" d="M236.1,43.4c1.1-1.2,6.1-2.9,6.7-4.2a1.5,1.5,0,0,0-.6-2.1H242a1.6,1.6,0,0,0-1.3.8c-.1.2-5.8,1.4-7.5,2.4a18.3,18.3,0,0,0-4.4,2.8c-.7.7-2,6.4-2.3,7s1.8,2.8,2.8,3.5a4.8,4.8,0,0,0,2.9.2c.4-.1-.5-4-1-5.3S234.9,44.6,236.1,43.4Z"/><path class="cls-2" d="M230,28.6c1.8,1.9,2.9-.8,4.9-.5C234.9,24.2,229.8,25.7,230,28.6Z"/><path class="cls-2" d="M266.4,29.4c0,.7,5.2,1.3,6.7.9s-.3-2.6-2.5-2.5S266.4,28.8,266.4,29.4Z"/><path class="cls-2" d="M76.6,68.2c-.6.5,0,3.1.9,3.1s2.7-3.9,4-3.1,2.1,1.1,1.9.7-3.9-1.9-4.3-2.3S77.1,67.8,76.6,68.2Z"/><path class="cls-2" d="M89.9,155.4c0,.5,2.3.3,2.6-.3s.1-1.3-.4-1.3A3.6,3.6,0,0,0,89.9,155.4Z"/><path class="cls-2" d="M79.8,151.6c1-.2.5,1.5.8,2.2s2.8,1.1,3.4,1.6,1.8-.8,2.8-.7-.3-3.6-2-3.5-3.1-1.6-3.6-1.8a29,29,0,0,1-2.9-1.9c-.6-.4-5.1-.8-6.5-.8a5,5,0,0,0-3.5,2.1c-.2.4,2.4.9,3.1.4s4.2.5,5,1.3A4.2,4.2,0,0,0,79.8,151.6Z"/><path class="cls-2" d="M75,155.4c0,.5,2.2.1,2.8.1s.6-.4,0-.8S75,154.9,75,155.4Z"/><path class="cls-2" d="M76.6,143.5c-.6-.2-1.1.7-1.1,1.2a.8.8,0,0,0,.7.8C76.7,145.5,77.2,143.8,76.6,143.5Z"/><path class="cls-2" d="M81.5,143.9a1.9,1.9,0,0,0-1.5-.8c-.4,0-.5.7-.5,1.7S81.6,144.3,81.5,143.9Z"/><path class="cls-2" d="M84.9,149.2c.9-.4,1-1.4.4-1.4s-1.6-1.6-2.1-1.9-1.1,1.1-1.1,1.5a.8.8,0,0,0,.6.8h.1C83.3,148.1,84,149.7,84.9,149.2Z"/><path class="cls-2" d="M342.9,185.5c-.5.2-2.8.5-3.1.1s-.7.9-1.3,1.2-.2,1.3.6,1,2.7.9,4.4,2.1c.4-1.8.7-3.6,1-5.4Z"/><path class="cls-2" d="M77.6,205.9c-.2.5,2.6,3.4,3.6,4.4s3.5,5.7,3.9,7.3a12.4,12.4,0,0,1,0,4.7,10.5,10.5,0,0,0,.6,2.4c.1.5-.9,5.1-.6,7s-2.2,7.7-2,10.6,1.3,6.7,1.8,6.4.7,2.7-.1,3-2,2.6-1.4,2.7,0,2.4.1,3.3.9,7,1,8.5,2.3,5.1,2.8,6.4.9,3.5,1,3.9l.4.8a8.8,8.8,0,0,1,2.2,1c.5.3,3.9.1,5.1-.1s.1-1.3-.4-1.7-.9-3.2-1.5-3.5-.8-3.6-.3-4.4,2.5-2,2.7-2.6.3-3.6-.2-4,.1-4-.2-5.9,3-3.4,3.3-4.7,4-3,4.8-3.7,1.6-4.8,1.1-5.6,1.4-1.6,2.2-1.6a6.6,6.6,0,0,0,2-.6c.3,0,1.3-1.8,1.7-2.1s1.6-4.7,2.6-5.4a8,8,0,0,0,1.7-4,9.6,9.6,0,0,1,1.9-3.6c.5-.7,4-2.3,4.7-2.5s1.6-6,1.8-8a49.2,49.2,0,0,1,1.4-5.5c0-.7,1.1-1.3,1.3-1.5s1.1-2.8,1.6-3.4,2.6-3.1,2.6-3.7a19.8,19.8,0,0,1,.6-3.2v-3.5c-.5-1.7-2.5-3.9-2.9-3.3s-2.7-1.5-3.8-1.9a14.3,14.3,0,0,0-4.6-.7c-.6,0-3-2-4.2-2.3a37.4,37.4,0,0,1-4.3-1.1c-.5-.4-1.2-4.5-3.4-5.9s-6.2-4.5-6.7-5.7-4.6-3.5-6-4.3-3.3-.9-3.5-.6-2-2.3-2.8-2.9-3.4-1.3-3.5-.7-1.8.2-2.2-.3-1.7.3-2.4.5-2.7,3.4-3.7,4.2-2.2-.7-2.9-1a7.5,7.5,0,0,0-3.8,1c-.6.5-2.1-3.4-1.8-5.2s-1.6-5.4-3.2-5.5-1.9-3.9-1.7-5.3-2.7-2.2-3.5-2.3-2.7,1.8-3,2.8-7.3-1.3-6.5-5.5,4.1-8.5,4.9-9,5.3-.7,6.3-.1a1.7,1.7,0,0,0,2-.2,13.4,13.4,0,0,1,4.9.4c1.1.5,2.7,4.7,3.8,5.2s1.5-2.8,1.7-3.6a10,10,0,0,0-.8-3.3c-.2-.6,1.8-5.7,3.6-6.5s3.5-3.8,3.3-4.2,1.3-.9,1.7-1.2,0-4.3.5-5.2a20.3,20.3,0,0,1,5-3.2c1-.4,1.7-3,1.3-3.5s2.6-3,4.2-3.6,2.9.9,2.6,1.1,2.3-1.3,3.3-1.9,0-2.6-.7-3.2-.3-2.7.5-2.9a3.1,3.1,0,0,0,1.3-2.5c-.2-.4,3.4.3,4.8-.7s.3,2.4-.6,3.9a1.6,1.6,0,0,0,.4,2.2,1.7,1.7,0,0,0,1,.3,1.4,1.4,0,0,1,1.5,1.1c.1.3,1.5-.4,2.4,0s1.5-1.2,1.5-2-2.2-2.3-2.6-3.4a60.1,60.1,0,0,1-.4-7.4c0-1-1.5-2.8-1.9-2.5s-1.4-2.8-2.2-3.5a3.7,3.7,0,0,1-.9-2.8c0-.4-2.5-3.2-3.2-4.4s-1.5-1-1.6-.5-1.8.7-2.6.6-1.4-3-1.4-4-3.3-1.2-3.9-2.2-2.7-.4-3.1-1a3.9,3.9,0,0,0-2.6-.9c-.3.2-.2,8.1-.6,10.2s-2.1,4-2.8,3.8-.3,1.5.1,1.4-1.3,2.3-1.5,3.9-1.8,0-2-1.5-1.9-3.4-2.2-3-1.4-.5-1.8-.2-3.5-1.7-4.7-2.4-1.8-4.3-2.6-4.7-.2-.8-.2-1.3,2.4-2.8,3.1-3.6,3.3-4.2,4.4-5,1.8-2.6,1.6-3,4.4-1.8,5.7-2.1,2.2-3.9,2.5-4.9a4.1,4.1,0,0,0-1.4-3.1c-.6-.2,1.7-.4,2.5.1s3.1-.7,4.1-.2l4.2,2.5-.2,2.5-.6,4.3c-3.6,1.5-4.6,4.1-3.4,4s7.1,2.5,8.7,3.7,2.2-1.7,2.6-2.6a7.9,7.9,0,0,0,0-4.3c-.4-.5,1.8-.3,2.5.3s1.4-.6,1.9-1,.6-2.6,1-3-1-.9-1.2-1.6-2.6-1.7-3.4-2.2a2.1,2.1,0,0,1-.6-2.5c.4-.4-.2-2.6-.6-3.3s-3.1-1.4-4-1.4-1.9-2-2.4-2.4a16.3,16.3,0,0,0-4.9-.4c-.8.2-2.4-2.6-3.9-1.6s-3-1-3.7-1.4-4.1,3.3-4,5.8,1.3,5,1.9,5.1-.1,2.4-.7,3.1-2.1-.7-1.5-1.2-1.5-3.3-2.2-4.4-2.3-1.4-3.4-1.9l-2,2.3a6.5,6.5,0,0,1,.2,3.1c-.5,1.6-1.8,1.8-1.8,1.1a2.2,2.2,0,0,0-1.5-.6L64.1,62l-2,2.6L60,67.4l-1.8,2.5-2.6,3.9-2.4,3.8c-.7,1-1.3,2.2-2,3.3A10.1,10.1,0,0,0,50,83.2l-2,3.5-1,2.1c-1.4,2.7-2.7,5.6-4,8.5v.3l-1.7,4.3-.7,1.6L39,107.9l-.2.7c-1.8,5.1-3.2,10.2-4.5,15.4-.1.4-.1.7-.2,1a163.5,163.5,0,0,0-2.8,16.8h0a11,11,0,0,1,1.8,2.6c.4,1.4,2.8,2.3,3.3,2.7s.6-2.7.2-3.5.6-1.1.6-.6,2.3,3,3,4.1,1.4,6.9,2.2,8.2,7.7,4,10,4.4a11.9,11.9,0,0,1,5.4,3.7c.5.7,3.5,1,4,1.4a23.7,23.7,0,0,1,2.8,2.7,4.5,4.5,0,0,1,1.1,1.9c0,.4,3.9,1.9,4.9,2.9a2.4,2.4,0,0,0,2.9.3c.2-.4,1,2.1,1.5,3a5.4,5.4,0,0,1,.1,3.3c-.4.3-.8,4.2-1.5,5s-2.1,6.5-1.7,7.7a8.2,8.2,0,0,0,2.9,3.7.9.9,0,0,1,.3,1.3c-.1.1-.2.3-.4.3s-.3,5.6,1.2,6.4S77.8,205.6,77.6,205.9Z"/><path class="cls-2" d="M85.3,42.3c1.9-.3,5.1-.9,5.3-1.3a5.4,5.4,0,0,0-.1-2.2h.9c.7,0,1.9-3.9,2.6-4.8s5-2.3,6.1-2.9,3.3-2.7,4.1-3,2.1-2.3,1.9-2.7,3-2.2,4.1-2.7,1.8-1.8,1.4-1.9-6.9,3.4-12.9,6.8h-.1l-5.2,3.7-3.3,2.6-1.7,1.4-3.9,3.3-.8.6L79.5,43Z"/><path class="cls-2" d="M185.9,119.8c-.7,0-.8,2.2,0,2.5s1.2-1.2,1.9-2.2v-8.7h-.1c-.9-1-.8-1,.1-.3V56.7l-2.1,1.8c-1.2,1.1-3.5,5.4-4.2,6.5a2.7,2.7,0,0,1-2.1,1.3,2.1,2.1,0,0,0-.8,1.6c0,.4-3.8,2.4-4.3,4.1s.5,5.7.5,7.1,1.4,4.2,2.4,4.2.6,2.4.2,3.1.7,1.3.6,1.9-2.6,1.4-3.4,1.6a5.5,5.5,0,0,0-2.3,2.9c-.1.5-2.6,1-3.6,1.8s.6-1.4.7-1.8a3.3,3.3,0,0,0-.5-2.9c-.4-.3-.6-4.9-1.3-5.9a25.5,25.5,0,0,0-2.6-3c-.5-.3.2-1.5.6-2s-2.2-.8-2.8-.5-1,4.9-1.2,6.2a3.6,3.6,0,0,0,1.6,3.2c.4.1.2,2.2-.6,2.4s-1.6,3.3-1.2,4.1-.5,2.1-1,2.5,3.2.1,4.9.1a4.4,4.4,0,0,1,2.9.8c-.1.1-3.2.6-3.8,1.2s-2.6,2.1-3,2.7.7,1.7,1.5,1.7,1.9,2.9,2.5,3.5a2.5,2.5,0,0,1,.2,2.6c-.3.5-4.5-.2-6,.1s-3.5,3.7-3.6,5a28.3,28.3,0,0,0,.4,5.8c.1.9,3.4,1.6,4.1,2s3.8,0,4.5.4,2.7-3.2,3.2-4.8,3.7-4.6,4.4-5.7,4.3-.9,5.2-1.5.4,2.7.8,4.6,3.8,1.6,3.3-.2.3-2.4.4-1.8,3.4,2,4.1,2.9S186.5,119.8,185.9,119.8Z"/><path class="cls-2" d="M187.8,130.6l-1.7-.8c-2.1-.8-3.7-3.8-4-4.3s.3-1.4.1-2-4.8-.7-6.1-.3-8.4,1.3-10,2-4.1,0-4.9-.1-2.6,2.1-3.5,2.5-2.1,3.6-2.6,7.1l-1.3,2.4-.8,1.6c-2.3,1.8-4.8,7.6-5.6,8.8S146,157.1,146,160s2.4,8.7,3.2,10.5,4.9,5.2,6.4,6.1,6.1,1,7.6,1a4.4,4.4,0,0,0,3.7-3.1l2.2.2h1c0,1.2,3.3,2.1,4.1,2.6a6.3,6.3,0,0,0,3.6-.1c.5-.1,1.3,5.6.9,7.3s1.1,7.5,1.6,9.3,2.5,6.7,2.6,8.4-1.1,7.5-1.4,9.6,2.5,7.6,3.2,9.5a35.4,35.4,0,0,1,1.3,7.1,20.5,20.5,0,0,0,1.6,4.1V130.4h0Z"/><path class="cls-2" d="M106.7,270h2.1C109.1,267.6,106.6,267.9,106.7,270Z"/><path class="cls-2" d="M150.5,52.8c1.1.5,3.2-1,2.4-1.6s-.4-.5,0-.3.8-2,.4-2.4,3.2-3.1,2.7-5.6,1-5.1,1.9-5.1.7-2.9-.6-3.1,0-.5.5-.9a8.4,8.4,0,0,0,.7-3.5c-.2-.4,1.8-1,2.1-1.5a10.4,10.4,0,0,1,3.6-1.9c.9-.1,1.2-2.4.4-2.3a6.6,6.6,0,0,1-3.6-.8,9.7,9.7,0,0,0-4.9-.4c-1,.3-.4-2.5,1-2.7s.2-2.3-1.2-2.3-5.3-.6-6.1-.4a12.3,12.3,0,0,1-3.2-.7c-.6-.1-5.1,1.4-7.2,1.3a47.4,47.4,0,0,0-8.4.5c-1.2.2-2,2.5-1.7,3.3s-5,.8-6.6.8-10.4,1.8-12.7,3-4,4.5-3.3,4.5-1.3,1.8-2.5,2.3-4.1.5-4.8,1.2.7,1.2.9,1.6,1-.4,1.8,0,3.3.6,4,.9-2.2.8-3.4,1-1,2.6,0,3,3.9.7,4.1.3,3.3.4,4.7.6,2.4,3.6,2.8,4.4.5,3.3.5,4.1,2.4,2,2.8,1.6.4,1.1-.7,1-.3,2.8,1,3.2.3,2.2-.4,2.7-.3,2.2-1,2.9,2.6,6.4,2.5,9.4,1.8,5.3,2.5,5.3,3.1.6,3.4,1.3,1.5-.5,2-.9,1.3-2,2.1-3.2,2.4-7.2,2.7-7.9,2.9-.2,3.6-.6a32.1,32.1,0,0,0,3-2.1c.4-.5,4.4-2.1,5.6-2.9s2.8-4.1,3.7-4.9-.4-.5-1.4-1.1a1.2,1.2,0,0,1-.5-1.6l.2-.3C146.2,51.6,149.5,52.4,150.5,52.8Z"/><path class="cls-2" d="M185.4,26.5c-1.1-.4-3.4.9-3.1,1.6s-1.8-.9-3.3-.1-1.9,3.4-1.2,3.7,1.1,2.4,1.1,2.9,2.9.1,3.7-.5.5,2.1-.2,2.9.3,2.1,1.1,2.2,1.8,2,2.7,2a2.8,2.8,0,0,0,1.5-1.7V29.7h0C187.1,29.7,186.5,26.8,185.4,26.5Z"/><path class="cls-2" d="M158,92.6a1.7,1.7,0,0,0,1.5-1.6c0-.6-1.2-3.9-1.7-3.9s-1.4,2.4-2.1,2.1-.9,2-.8,2.8S157,92.9,158,92.6Z"/><path class="cls-2" d="M154.8,68.1a2.4,2.4,0,0,0,2.4,1.3c1.1-.1,3.1-1.3,3.9-1.4s1.5-3.8,1-4.6-3.8-.6-4.8-.6a14.9,14.9,0,0,1-4-1.5c-.5-.6-.8,2.1-1.6,2.5s.4.8.7.6,0,1.3-.4,1.9S154.6,67.4,154.8,68.1Z"/><path class="cls-2" d="M76.6,68.2c-.6.5,0,3.1.9,3.1s2.7-3.9,4-3.1,2.1,1.1,1.9.7-3.9-1.9-4.3-2.3S77.1,67.8,76.6,68.2Z"/><path class="cls-2" d="M89.9,155.4c0,.5,2.3.3,2.6-.3s.1-1.3-.4-1.3A3.6,3.6,0,0,0,89.9,155.4Z"/><path class="cls-2" d="M79.8,151.6c1-.2.5,1.5.8,2.2s2.8,1.1,3.4,1.6,1.8-.8,2.8-.7-.3-3.6-2-3.5-3.1-1.6-3.6-1.8a29,29,0,0,1-2.9-1.9c-.6-.4-5.1-.8-6.5-.8a5,5,0,0,0-3.5,2.1c-.2.4,2.4.9,3.1.4s4.2.5,5,1.3A4.2,4.2,0,0,0,79.8,151.6Z"/><path class="cls-2" d="M75,155.4c0,.5,2.2.1,2.8.1s.6-.4,0-.8S75,154.9,75,155.4Z"/><path class="cls-2" d="M76.6,143.5c-.6-.2-1.1.7-1.1,1.2a.8.8,0,0,0,.7.8C76.7,145.5,77.2,143.8,76.6,143.5Z"/><path class="cls-2" d="M81.5,143.9a1.9,1.9,0,0,0-1.5-.8c-.4,0-.5.7-.5,1.7S81.6,144.3,81.5,143.9Z"/><path class="cls-2" d="M84.9,149.2c.9-.4,1-1.4.4-1.4s-1.6-1.6-2.1-1.9-1.1,1.1-1.1,1.5a.8.8,0,0,0,.6.8h.1C83.3,148.1,84,149.7,84.9,149.2Z"/><path class="cls-3" d="M90.6,39.1c-.1-.1-.8.4-.5.6A.4.4,0,0,0,90.6,39.1Z"/><path class="cls-3" d="M108.2,91.5c-.2-.1-.8.3-.6.6S108.5,91.8,108.2,91.5Z"/><path class="cls-4" d="M107.5,46.1H19.3A19.2,19.2,0,0,0,0,65.4V276.8a19.3,19.3,0,0,0,19.3,19.3h88.2a19.4,19.4,0,0,0,19.3-19.3V65.5a19.2,19.2,0,0,0-19-19.4Z"/><path class="cls-5" d="M46.7,61.2H80a1.7,1.7,0,0,1,1.7,1.7,1.6,1.6,0,0,1-1.5,1.7H46.7A1.7,1.7,0,0,1,45,62.9,1.6,1.6,0,0,1,46.7,61.2Z"/><path class="cls-5" d="M63.3,281.9a11.2,11.2,0,1,1,11.2-11.1A11.2,11.2,0,0,1,63.3,281.9Z"/><rect class="cls-5" x="8.2" y="84.2" width="110.1" height="163.03"/><path class="cls-6" d="M63.3,263a7.9,7.9,0,0,0-7.7,7.8,7.7,7.7,0,0,0,7.7,7.7,7.8,7.8,0,1,0,0-15.5Z"/><rect class="cls-7" x="14.6" y="121.9" width="97.4" height="50.1"/><rect class="cls-8" x="41.3" y="100.3" width="70.4" height="6.96"/><path class="cls-8" d="M32.9,103.8a9.2,9.2,0,1,1-9.2-9.1A9.2,9.2,0,0,1,32.9,103.8Z"/><rect class="cls-8" x="14.6" y="204.1" width="97.4" height="2.86"/><rect class="cls-8" x="14.6" y="214" width="97.4" height="2.86"/><rect class="cls-8" x="14.6" y="223.9" width="97.4" height="2.86"/><rect class="cls-8" x="14.6" y="233.7" width="70.7" height="2.86"/><rect class="cls-8" x="14.6" y="185.1" width="64.8" height="6.96"/><path class="cls-5" d="M41.6,151.1V138.4h2.3l2,5,1.3,3.7h0c-.1-1.4-.2-3.6-.2-5.8v-2.9h2.2v12.7H46.9L45,146.3a28.4,28.4,0,0,1-1.3-3.8h0c0,1.3.1,3.2.1,5.8v2.9H41.6Z"/><path class="cls-5" d="M56.7,145.5H53.9v3.4h3.3v2.2H51.5V138.4h5.4v2.2h-3v2.9h2.8v2.1Z"/><path class="cls-5" d="M60.1,140.7H57.8v-2.3h7v2.3H62.5v10.4H60V140.7Z"/><path class="cls-5" d="M67.9,151.1l-2.2-12.7h2.5l.6,5a36.4,36.4,0,0,0,.5,4.5h0c.1-1.6.4-3,.6-4.5l1-5h1.9l.8,5,.6,4.5h0l.4-4.5.6-5h2.4l-2.3,12.7H73.1l-.8-4.1c-.2-1.2-.3-2.7-.5-4.2h0c-.3,1.5-.5,3-.7,4.3l-.8,4.1H67.9Z"/><path class="cls-5" d="M86.8,144.6c0,4.8-1.7,6.7-4.1,6.7s-4-3.1-4-6.5,1.4-6.5,4.2-6.5S86.8,141.6,86.8,144.6Zm-5.6.2c0,2.8.6,4.3,1.6,4.3s1.5-1.8,1.5-4.4-.3-4.2-1.5-4.2S81.2,142.1,81.2,144.8Z"/><path class="cls-5" d="M88.3,138.6l2.7-.2a5.3,5.3,0,0,1,3.5.9,3.3,3.3,0,0,1,1,2.6,3.5,3.5,0,0,1-1.9,3.2h0c.9.4,1.2,1.2,1.6,2.5a14.7,14.7,0,0,0,.8,3.5H93.3a16.7,16.7,0,0,1-.5-3.1c-.3-1.6-.6-2.1-1.5-2.1h-.4V151H88.4V138.5Zm2.5,5.5h.5a1.7,1.7,0,0,0,1.7-1.7v-.2a1.6,1.6,0,0,0-1.4-1.8h-.8Z"/><path class="cls-5" d="M97.2,138.4h2.5v5.7h0l.6-1.6,1.7-4.1h2.7l-2.8,5.5,2.8,7.2H102l-1.8-5.3-.6,1v4.3H97.1V138.4Z"/><g id="Page-1"><g id="xamagon"><path id="Logo" class="cls-5" d="M24.6,136.6a1.5,1.5,0,0,0-1.4.5l-4.6,7.8a1.5,1.5,0,0,0,0,1.6l4.6,7.8a1.5,1.5,0,0,0,1.4.6h9.2a1.7,1.7,0,0,0,1.5-.6l4.5-7.8a1.5,1.5,0,0,0,0-1.6l-4.5-7.5a1.6,1.6,0,0,0-1.5-.6H24.6Zm.2,3.7V140h1.6c.1.1.1.3.2.5l2.6,4.9h0l2.6-5.1.3-.3h1.6a.8.8,0,0,1,.2.6l-2.6,4.8,2.6,4c.1.1,0-.4-.2-.4H32.1c-.2,0-.2.7-.3.6l-2.6-4.4h0l-2.6,4.2c0,.1-.1-.6-.2-.6H24.8c-.2,0-.3.4-.3.3l2.7-4.3-2.7-4.6a.4.4,0,0,1,.1-.3h0Z"/></g></g></g></g></g></svg>