<svg xmlns="http://www.w3.org/2000/svg" xmlns:xlink="http://www.w3.org/1999/xlink" viewBox="0 0 344.4 399.9"><defs><style>.cls-1{fill:url(#linear-gradient);}.cls-192,.cls-2{opacity:0.8;}.cls-203,.cls-3{fill:#fff;}.cls-4{fill:#fefefe;opacity:1;}.cls-10,.cls-100,.cls-101,.cls-102,.cls-103,.cls-104,.cls-105,.cls-106,.cls-107,.cls-108,.cls-109,.cls-11,.cls-110,.cls-111,.cls-112,.cls-113,.cls-114,.cls-115,.cls-116,.cls-117,.cls-118,.cls-119,.cls-12,.cls-120,.cls-121,.cls-122,.cls-123,.cls-124,.cls-125,.cls-126,.cls-127,.cls-128,.cls-129,.cls-13,.cls-130,.cls-131,.cls-132,.cls-133,.cls-134,.cls-135,.cls-136,.cls-137,.cls-138,.cls-139,.cls-14,.cls-140,.cls-141,.cls-142,.cls-143,.cls-144,.cls-145,.cls-146,.cls-147,.cls-148,.cls-149,.cls-15,.cls-150,.cls-151,.cls-152,.cls-153,.cls-154,.cls-155,.cls-156,.cls-157,.cls-158,.cls-159,.cls-16,.cls-160,.cls-161,.cls-162,.cls-163,.cls-164,.cls-165,.cls-166,.cls-167,.cls-168,.cls-169,.cls-17,.cls-170,.cls-171,.cls-172,.cls-173,.cls-174,.cls-175,.cls-176,.cls-177,.cls-178,.cls-179,.cls-18,.cls-180,.cls-181,.cls-182,.cls-183,.cls-184,.cls-185,.cls-186,.cls-187,.cls-188,.cls-189,.cls-19,.cls-190,.cls-191,.cls-192,.cls-195,.cls-197,.cls-199,.cls-20,.cls-201,.cls-203,.cls-207,.cls-21,.cls-22,.cls-23,.cls-24,.cls-25,.cls-26,.cls-27,.cls-28,.cls-29,.cls-30,.cls-31,.cls-32,.cls-33,.cls-34,.cls-35,.cls-36,.cls-37,.cls-38,.cls-39,.cls-4,.cls-40,.cls-41,.cls-42,.cls-43,.cls-44,.cls-45,.cls-46,.cls-47,.cls-48,.cls-49,.cls-5,.cls-50,.cls-51,.cls-52,.cls-53,.cls-54,.cls-55,.cls-56,.cls-57,.cls-58,.cls-59,.cls-6,.cls-60,.cls-61,.cls-62,.cls-63,.cls-64,.cls-65,.cls-66,.cls-67,.cls-68,.cls-69,.cls-7,.cls-70,.cls-71,.cls-72,.cls-73,.cls-74,.cls-75,.cls-76,.cls-77,.cls-78,.cls-79,.cls-8,.cls-80,.cls-81,.cls-82,.cls-83,.cls-84,.cls-85,.cls-86,.cls-87,.cls-88,.cls-89,.cls-9,.cls-90,.cls-91,.cls-92,.cls-93,.cls-94,.cls-95,.cls-96,.cls-97,.cls-98,.cls-99{isolation:isolate;}.cls-5{fill:#fdfdfd;opacity:1;}.cls-6{fill:#fcfcfc;opacity:1;}.cls-7{fill:#fbfbfb;opacity:1;}.cls-8{fill:#fafafa;opacity:0.99;}.cls-9{fill:#f9f9f9;opacity:0.99;}.cls-10{fill:#f8f8f8;opacity:0.99;}.cls-11{fill:#f7f7f7;opacity:0.99;}.cls-12{fill:#f6f6f6;opacity:0.99;}.cls-13{fill:#f5f5f5;opacity:0.99;}.cls-14{fill:#f4f4f4;opacity:0.99;}.cls-15{fill:#f3f3f3;opacity:0.99;}.cls-16{fill:#f2f2f2;opacity:0.99;}.cls-17{fill:#f1f1f1;opacity:0.99;}.cls-18{fill:#f0f0f0;opacity:0.98;}.cls-19{fill:#efefef;opacity:0.98;}.cls-20{fill:#eee;opacity:0.98;}.cls-21{fill:#ededed;opacity:0.98;}.cls-22{fill:#ececec;opacity:0.98;}.cls-23{fill:#ebebeb;opacity:0.98;}.cls-24{fill:#eaeaea;opacity:0.98;}.cls-25{fill:#e9e9e9;opacity:0.98;}.cls-26{fill:#e8e8e8;opacity:0.98;}.cls-27{fill:#e7e7e7;opacity:0.97;}.cls-28{fill:#e6e6e6;opacity:0.97;}.cls-29{fill:#e5e5e5;opacity:0.97;}.cls-30{fill:#e4e4e4;opacity:0.97;}.cls-31{fill:#e3e3e3;opacity:0.97;}.cls-32{fill:#e2e2e2;opacity:0.97;}.cls-33{fill:#e1e1e1;opacity:0.97;}.cls-34{fill:#e0e0e0;opacity:0.97;}.cls-35{fill:#dfdfdf;opacity:0.97;}.cls-36{fill:#dedede;opacity:0.97;}.cls-37{fill:#ddd;opacity:0.96;}.cls-38{fill:#dcdcdc;opacity:0.96;}.cls-39{fill:#dbdbdb;opacity:0.96;}.cls-40{fill:#dadada;opacity:0.96;}.cls-41{fill:#d9d9d9;opacity:0.96;}.cls-42{fill:#d8d8d8;opacity:0.96;}.cls-43{fill:#d7d7d7;opacity:0.96;}.cls-44{fill:#d6d6d6;opacity:0.96;}.cls-45{fill:#d5d5d5;opacity:0.96;}.cls-46{fill:#d4d4d4;opacity:0.95;}.cls-47{fill:#d3d3d3;opacity:0.95;}.cls-48{fill:#d2d2d2;opacity:0.95;}.cls-49{fill:#d1d1d1;opacity:0.95;}.cls-50{fill:#d0d0d0;opacity:0.95;}.cls-51{fill:#cfcfcf;opacity:0.95;}.cls-52{fill:#cecece;opacity:0.95;}.cls-53{fill:#cdcdcd;opacity:0.95;}.cls-54{fill:#ccc;opacity:0.95;}.cls-55{fill:#cbcbcb;opacity:0.94;}.cls-56{fill:#cacaca;opacity:0.94;}.cls-57{fill:#c9c9c9;opacity:0.94;}.cls-58{fill:#c8c8c8;opacity:0.94;}.cls-59{fill:#c7c7c7;opacity:0.94;}.cls-60{fill:#c6c6c6;opacity:0.94;}.cls-61{fill:#c5c5c5;opacity:0.94;}.cls-206,.cls-62{fill:#c4c4c4;}.cls-62{opacity:0.94;}.cls-63{fill:#c3c3c3;opacity:0.94;}.cls-64{fill:#c2c2c2;opacity:0.94;}.cls-65{fill:#c1c1c1;opacity:0.93;}.cls-66{fill:silver;opacity:0.93;}.cls-67{fill:#bfbfbf;opacity:0.93;}.cls-68{fill:#bebebe;opacity:0.93;}.cls-69{fill:#bdbdbd;opacity:0.93;}.cls-70{fill:#bcbcbc;opacity:0.93;}.cls-71{fill:#bbb;opacity:0.93;}.cls-72{fill:#bababa;opacity:0.93;}.cls-73{fill:#b9b9b9;opacity:0.93;}.cls-74{fill:#b8b8b8;opacity:0.92;}.cls-75{fill:#b7b7b7;opacity:0.92;}.cls-76{fill:#b6b6b6;opacity:0.92;}.cls-77{fill:#b5b5b5;opacity:0.92;}.cls-78{fill:#b4b4b4;opacity:0.92;}.cls-79{fill:#b3b3b3;opacity:0.92;}.cls-80{fill:#b2b2b2;opacity:0.92;}.cls-81{fill:#b1b1b1;opacity:0.92;}.cls-82{fill:#b0b0b0;opacity:0.92;}.cls-83{fill:#afafaf;opacity:0.92;}.cls-84{fill:#aeaeae;opacity:0.91;}.cls-85{fill:#adadad;opacity:0.91;}.cls-86{fill:#acacac;opacity:0.91;}.cls-87{fill:#ababab;opacity:0.91;}.cls-88{fill:#aaa;opacity:0.91;}.cls-89{fill:#a9a9a9;opacity:0.91;}.cls-90{fill:#a8a8a8;opacity:0.91;}.cls-91{fill:#a7a7a7;opacity:0.91;}.cls-92{fill:#a6a6a6;opacity:0.91;}.cls-93{fill:#a5a5a5;opacity:0.9;}.cls-94{fill:#a4a4a4;opacity:0.9;}.cls-95{fill:#a3a3a3;opacity:0.9;}.cls-96{fill:#a2a2a2;opacity:0.9;}.cls-97{fill:#a1a1a1;opacity:0.9;}.cls-98{fill:#a0a0a0;opacity:0.9;}.cls-99{fill:#9f9f9f;opacity:0.9;}.cls-100{fill:#9e9e9e;opacity:0.9;}.cls-101{fill:#9d9d9d;opacity:0.9;}.cls-102{fill:#9c9c9c;opacity:0.9;}.cls-103{fill:#9b9b9b;opacity:0.89;}.cls-104{fill:#9a9a9a;opacity:0.89;}.cls-105{fill:#999;opacity:0.89;}.cls-106{fill:#989898;opacity:0.89;}.cls-107{fill:#979797;opacity:0.89;}.cls-108{fill:#969696;opacity:0.89;}.cls-109{fill:#959595;opacity:0.89;}.cls-110{fill:#949494;opacity:0.89;}.cls-111{fill:#939393;opacity:0.89;}.cls-112{fill:#929292;opacity:0.88;}.cls-113{fill:#919191;opacity:0.88;}.cls-114{fill:#909090;opacity:0.88;}.cls-115{fill:#8f8f8f;opacity:0.88;}.cls-116{fill:#8e8e8e;opacity:0.88;}.cls-117{fill:#8d8d8d;opacity:0.88;}.cls-118{fill:#8c8c8c;opacity:0.88;}.cls-119{fill:#8b8b8b;opacity:0.88;}.cls-120{fill:#8a8a8a;opacity:0.88;}.cls-121{fill:#898989;opacity:0.88;}.cls-122{fill:#888;opacity:0.87;}.cls-123{fill:#878787;opacity:0.87;}.cls-124{fill:#868686;opacity:0.87;}.cls-125{fill:#858585;opacity:0.87;}.cls-126{fill:#848484;opacity:0.87;}.cls-127{fill:#838383;opacity:0.87;}.cls-128{fill:#828282;opacity:0.87;}.cls-129{fill:#818181;opacity:0.87;}.cls-130{fill:gray;opacity:0.87;}.cls-131{fill:#7f7f7f;opacity:0.86;}.cls-132{fill:#7e7e7e;opacity:0.86;}.cls-133{fill:#7d7d7d;opacity:0.86;}.cls-134{fill:#7c7c7c;opacity:0.86;}.cls-135{fill:#7b7b7b;opacity:0.86;}.cls-136{fill:#7a7a7a;opacity:0.86;}.cls-137{fill:#797979;opacity:0.86;}.cls-138{fill:#787878;opacity:0.86;}.cls-139{fill:#777;opacity:0.86;}.cls-140{fill:#767676;opacity:0.86;}.cls-141{fill:#757575;opacity:0.85;}.cls-142{fill:#747474;opacity:0.85;}.cls-143{fill:#737373;opacity:0.85;}.cls-144{fill:#727272;opacity:0.85;}.cls-145{fill:#717171;opacity:0.85;}.cls-146,.cls-211{fill:#707070;}.cls-146{opacity:0.85;}.cls-147{fill:#6f6f6f;opacity:0.85;}.cls-148{fill:#6e6e6e;opacity:0.85;}.cls-149{fill:#6d6d6d;opacity:0.85;}.cls-150{fill:#6c6c6c;opacity:0.84;}.cls-151{fill:#6b6b6b;opacity:0.84;}.cls-152{fill:#6a6a6a;opacity:0.84;}.cls-153{fill:#696969;opacity:0.84;}.cls-154{fill:#686868;opacity:0.84;}.cls-155{fill:#676767;opacity:0.84;}.cls-156{fill:#666;opacity:0.84;}.cls-157{fill:#656565;opacity:0.84;}.cls-158{fill:#646464;opacity:0.84;}.cls-159{fill:#636363;opacity:0.83;}.cls-160{fill:#626262;opacity:0.83;}.cls-161{fill:#616161;opacity:0.83;}.cls-162{fill:#606060;opacity:0.83;}.cls-163{fill:#5f5f5f;opacity:0.83;}.cls-164{fill:#5e5e5e;opacity:0.83;}.cls-165{fill:#5d5d5d;opacity:0.83;}.cls-166{fill:#5c5c5c;opacity:0.83;}.cls-167{fill:#5b5b5b;opacity:0.83;}.cls-168{fill:#5a5a5a;opacity:0.83;}.cls-169{fill:#595959;opacity:0.82;}.cls-170{fill:#585858;opacity:0.82;}.cls-171{fill:#575757;opacity:0.82;}.cls-172{fill:#565656;opacity:0.82;}.cls-173{fill:#555;opacity:0.82;}.cls-174{fill:#545454;opacity:0.82;}.cls-175{fill:#535353;opacity:0.82;}.cls-176{fill:#525252;opacity:0.82;}.cls-177{fill:#515151;opacity:0.82;}.cls-178{fill:#505050;opacity:0.81;}.cls-179{fill:#4f4f4f;opacity:0.81;}.cls-180{fill:#4e4e4e;opacity:0.81;}.cls-181{fill:#4d4d4d;opacity:0.81;}.cls-182{fill:#4c4c4c;opacity:0.81;}.cls-183{fill:#4b4b4b;opacity:0.81;}.cls-184{fill:#4a4a4a;opacity:0.81;}.cls-185{fill:#494949;opacity:0.81;}.cls-186{fill:#484848;opacity:0.81;}.cls-187{fill:#474747;opacity:0.81;}.cls-188{fill:#464646;opacity:0.8;}.cls-189{fill:#454545;opacity:0.8;}.cls-190{fill:#444;opacity:0.8;}.cls-191{fill:#434343;opacity:0.8;}.cls-192,.cls-193{fill:#424242;}.cls-194{fill:url(#linear-gradient-2);}.cls-195{opacity:0.12;}.cls-196{fill:#5f2900;}.cls-197,.cls-203{opacity:0.2;}.cls-198{fill:#e88e47;}.cls-199{opacity:0.35;}.cls-200{fill:url(#linear-gradient-3);}.cls-201{opacity:0.1;}.cls-202{fill:#361700;}.cls-204{fill:#450800;}.cls-205{fill:#b20a00;}.cls-207{opacity:0.36;}.cls-208{fill:#873a00;}.cls-209{fill:#ffa81f;}.cls-210{fill:#f69e63;}.cls-212{fill:#9ad5f0;}.cls-213{fill:url(#linear-gradient-4);}</style><linearGradient id="linear-gradient" x1="93.07" y1="619.9" x2="136.45" y2="619.9" gradientTransform="translate(0 -452)" gradientUnits="userSpaceOnUse"><stop offset="0.08" stop-color="#bdbdbd"/><stop offset="0.13" stop-color="#c2c2c2"/><stop offset="0.37" stop-color="#d7d7d7"/><stop offset="0.53" stop-color="#dfdfdf"/><stop offset="1" stop-color="#cdcdcd"/></linearGradient><linearGradient id="linear-gradient-2" x1="122.6" y1="647.18" x2="254.12" y2="647.18" xlink:href="#linear-gradient"/><linearGradient id="linear-gradient-3" x1="5182.11" y1="1132.07" x2="5247.45" y2="1132.07" gradientTransform="matrix(-0.98, -0.17, -0.17, 0.98, 5608.78, 4.1)" xlink:href="#linear-gradient"/><linearGradient id="linear-gradient-4" x1="17.51" y1="435.9" x2="38.58" y2="477.61" gradientTransform="matrix(1, -0.04, 0.04, 1, 7.76, -344.32)" gradientUnits="userSpaceOnUse"><stop offset="0" stop-color="#fff"/><stop offset="1"/></linearGradient></defs><title>nosotros</title><g id="Capa_2" data-name="Capa 2"><g id="Pagina_interna_escritorio" data-name="Pagina interna escritorio"><polygon class="cls-1" points="130.1 144.9 93.1 172 105.5 190.9 136.5 155.8 130.1 144.9"/><g class="cls-2"><ellipse class="cls-3" cx="209.2" cy="389" rx="135.2" ry="10.9"/><ellipse class="cls-4" cx="209.2" cy="389" rx="134.8" ry="10.9"/><ellipse class="cls-5" cx="209.2" cy="389" rx="134.5" ry="10.9"/><ellipse class="cls-6" cx="209.2" cy="389" rx="134.2" ry="10.8"/><ellipse class="cls-7" cx="209.2" cy="389" rx="134" ry="10.8"/><ellipse class="cls-8" cx="209.2" cy="389" rx="133.7" ry="10.8"/><ellipse class="cls-9" cx="209.2" cy="389" rx="133.4" ry="10.8"/><ellipse class="cls-10" cx="209.2" cy="389" rx="133.1" ry="10.8"/><ellipse class="cls-11" cx="209.2" cy="389" rx="132.7" ry="10.7"/><ellipse class="cls-12" cx="209.2" cy="389" rx="132.4" ry="10.7"/><ellipse class="cls-13" cx="209.2" cy="389" rx="132.1" ry="10.7"/><ellipse class="cls-14" cx="209.2" cy="389" rx="131.8" ry="10.7"/><ellipse class="cls-15" cx="209.2" cy="389" rx="131.5" ry="10.7"/><ellipse class="cls-16" cx="209.2" cy="389" rx="131.1" ry="10.7"/><ellipse class="cls-17" cx="209.2" cy="389" rx="130.8" ry="10.5"/><ellipse class="cls-18" cx="209.2" cy="389" rx="130.7" ry="10.5"/><ellipse class="cls-19" cx="209.2" cy="389" rx="130.3" ry="10.5"/><ellipse class="cls-20" cx="209.2" cy="389" rx="130" ry="10.5"/><ellipse class="cls-21" cx="209.2" cy="389" rx="129.7" ry="10.5"/><ellipse class="cls-22" cx="209.2" cy="389" rx="129.4" ry="10.4"/><ellipse class="cls-23" cx="209.2" cy="389" rx="129" ry="10.4"/><ellipse class="cls-24" cx="209.2" cy="389" rx="128.7" ry="10.4"/><ellipse class="cls-25" cx="209.2" cy="389" rx="128.4" ry="10.4"/><ellipse class="cls-26" cx="209.2" cy="389" rx="128.1" ry="10.4"/><ellipse class="cls-27" cx="209.2" cy="389" rx="127.8" ry="10.3"/><ellipse class="cls-28" cx="209.2" cy="389" rx="127.4" ry="10.3"/><ellipse class="cls-29" cx="209.2" cy="389" rx="127.3" ry="10.3"/><ellipse class="cls-30" cx="209.2" cy="389" rx="127" ry="10.3"/><ellipse class="cls-31" cx="209.2" cy="389" rx="126.6" ry="10.2"/><ellipse class="cls-32" cx="209.2" cy="389" rx="126.3" ry="10.2"/><ellipse class="cls-33" cx="209.2" cy="389" rx="126" ry="10.2"/><ellipse class="cls-34" cx="209.2" cy="389" rx="125.7" ry="10.2"/><ellipse class="cls-35" cx="209.2" cy="389" rx="125.3" ry="10.2"/><ellipse class="cls-36" cx="209.2" cy="389" rx="125" ry="10"/><ellipse class="cls-37" cx="209.2" cy="389" rx="124.7" ry="10"/><ellipse class="cls-38" cx="209.2" cy="389" rx="124.4" ry="10"/><ellipse class="cls-39" cx="209.2" cy="389" rx="124.1" ry="10"/><ellipse class="cls-40" cx="209.2" cy="389" rx="123.7" ry="10"/><ellipse class="cls-41" cx="209.2" cy="389" rx="123.6" ry="10"/><ellipse class="cls-42" cx="209.2" cy="389" rx="123.3" ry="9.9"/><ellipse class="cls-43" cx="209.2" cy="389" rx="122.9" ry="9.9"/><ellipse class="cls-44" cx="209.2" cy="389" rx="122.6" ry="9.9"/><ellipse class="cls-45" cx="209.2" cy="389" rx="122.3" ry="9.9"/><ellipse class="cls-46" cx="209.2" cy="389" rx="122" ry="9.9"/><ellipse class="cls-47" cx="209.2" cy="389" rx="121.6" ry="9.8"/><ellipse class="cls-48" cx="209.2" cy="389" rx="121.3" ry="9.8"/><ellipse class="cls-49" cx="209.2" cy="389" rx="121" ry="9.8"/><ellipse class="cls-50" cx="209.2" cy="389" rx="120.7" ry="9.8"/><ellipse class="cls-51" cx="209.2" cy="389" rx="120.4" ry="9.8"/><ellipse class="cls-52" cx="209.2" cy="389" rx="120.2" ry="9.7"/><ellipse class="cls-53" cx="209.2" cy="389" rx="119.9" ry="9.7"/><ellipse class="cls-54" cx="209.2" cy="389" rx="119.5" ry="9.7"/><ellipse class="cls-55" cx="209.2" cy="389" rx="119.2" ry="9.7"/><ellipse class="cls-56" cx="209.2" cy="389" rx="118.9" ry="9.7"/><ellipse class="cls-57" cx="209.2" cy="389" rx="118.6" ry="9.5"/><ellipse class="cls-58" cx="209.2" cy="389" rx="118.3" ry="9.5"/><ellipse class="cls-59" cx="209.2" cy="389" rx="117.9" ry="9.5"/><ellipse class="cls-60" cx="209.2" cy="389" rx="117.6" ry="9.5"/><path class="cls-61" d="M326.5,389c0,5.3-52.6,9.5-117.3,9.5S91.9,394.3,91.9,389s52.7-9.5,117.3-9.5S326.5,383.7,326.5,389Z"/><ellipse class="cls-62" cx="209.2" cy="389" rx="117" ry="9.4"/><ellipse class="cls-63" cx="209.2" cy="389" rx="116.8" ry="9.4"/><ellipse class="cls-64" cx="209.2" cy="389" rx="116.5" ry="9.4"/><ellipse class="cls-65" cx="209.2" cy="389" rx="116.2" ry="9.4"/><ellipse class="cls-66" cx="209.2" cy="389" rx="115.8" ry="9.4"/><ellipse class="cls-67" cx="209.2" cy="389" rx="115.5" ry="9.3"/><ellipse class="cls-68" cx="209.2" cy="389" rx="115.2" ry="9.3"/><ellipse class="cls-69" cx="209.2" cy="389" rx="114.9" ry="9.3"/><ellipse class="cls-70" cx="209.2" cy="389" rx="114.6" ry="9.3"/><ellipse class="cls-71" cx="209.2" cy="389" rx="114.2" ry="9.3"/><ellipse class="cls-72" cx="209.2" cy="389" rx="113.9" ry="9.2"/><ellipse class="cls-73" cx="209.2" cy="389" rx="113.6" ry="9.2"/><ellipse class="cls-74" cx="209.2" cy="389" rx="113.3" ry="9.2"/><ellipse class="cls-75" cx="209.2" cy="389" rx="113.1" ry="9.2"/><ellipse class="cls-76" cx="209.2" cy="389" rx="112.8" ry="9.2"/><ellipse class="cls-77" cx="209.2" cy="389" rx="112.5" ry="9"/><ellipse class="cls-78" cx="209.2" cy="389" rx="112.1" ry="9"/><ellipse class="cls-79" cx="209.2" cy="389" rx="111.8" ry="9"/><ellipse class="cls-80" cx="209.2" cy="389" rx="111.5" ry="9"/><ellipse class="cls-81" cx="209.2" cy="389" rx="111.2" ry="9"/><path class="cls-82" d="M320.1,389c0,5-49.7,8.9-110.9,8.9s-110.8-4-110.8-8.9,49.5-8.9,110.8-8.9S320.1,384,320.1,389Z"/><ellipse class="cls-83" cx="209.2" cy="389" rx="110.5" ry="8.9"/><ellipse class="cls-84" cx="209.2" cy="389" rx="110.2" ry="8.9"/><ellipse class="cls-85" cx="209.2" cy="389" rx="109.9" ry="8.9"/><path class="cls-86" d="M319,389c0,4.9-49.1,8.9-109.8,8.9S99.7,393.8,99.7,389s49-8.9,109.7-8.9S319,384,319,389Z"/><path class="cls-87" d="M318.7,389c0,4.9-49,8.8-109.5,8.8S99.8,393.9,99.8,389s48.9-8.8,109.4-8.8S318.7,384.1,318.7,389Z"/><ellipse class="cls-88" cx="209.2" cy="389" rx="109.1" ry="8.8"/><ellipse class="cls-89" cx="209.2" cy="389" rx="108.8" ry="8.8"/><ellipse class="cls-90" cx="209.2" cy="389" rx="108.4" ry="8.8"/><ellipse class="cls-91" cx="209.2" cy="389" rx="108.1" ry="8.8"/><ellipse class="cls-92" cx="209.2" cy="389" rx="107.8" ry="8.7"/><ellipse class="cls-93" cx="209.2" cy="389" rx="107.5" ry="8.7"/><ellipse class="cls-94" cx="209.2" cy="389" rx="107.2" ry="8.7"/><ellipse class="cls-95" cx="209.2" cy="389" rx="106.8" ry="8.7"/><path class="cls-96" d="M315.9,389c0,4.8-47.8,8.6-106.5,8.6s-106.5-3.8-106.5-8.6,47.8-8.7,106.5-8.7S315.9,384.2,315.9,389Z"/><path class="cls-97" d="M315.6,389c0,4.8-47.6,8.5-106.4,8.5s-106.3-3.9-106.3-8.5,47.6-8.7,106.3-8.7S315.6,384.2,315.6,389Z"/><ellipse class="cls-98" cx="209.2" cy="389" rx="106" ry="8.5"/><ellipse class="cls-99" cx="209.2" cy="389" rx="105.7" ry="8.5"/><ellipse class="cls-100" cx="209.2" cy="389" rx="105.4" ry="8.5"/><ellipse class="cls-101" cx="209.2" cy="389" rx="105.1" ry="8.5"/><ellipse class="cls-102" cx="209.2" cy="389" rx="104.7" ry="8.5"/><ellipse class="cls-103" cx="209.2" cy="389" rx="104.4" ry="8.4"/><ellipse class="cls-104" cx="209.2" cy="389" rx="104.1" ry="8.4"/><ellipse class="cls-105" cx="209.2" cy="389" rx="103.8" ry="8.4"/><ellipse class="cls-106" cx="209.2" cy="389" rx="103.5" ry="8.4"/><path class="cls-107" d="M312.5,389c0,4.6-46.1,8.3-103.1,8.3s-103.1-3.8-103.1-8.3,46.1-8.3,103.1-8.3S312.5,384.3,312.5,389Z"/><ellipse class="cls-108" cx="209.2" cy="389" rx="102.8" ry="8.3"/><ellipse class="cls-109" cx="209.2" cy="389" rx="102.7" ry="8.3"/><path class="cls-110" d="M311.6,389c0,4.5-45.9,8.3-102.4,8.3s-102.3-3.8-102.3-8.3,45.9-8.3,102.3-8.3S311.6,384.3,311.6,389Z"/><path class="cls-111" d="M311.3,389c0,4.5-45.7,8.3-102.1,8.3s-102-3.7-102-8.3,45.7-8.3,102-8.3S311.3,384.3,311.3,389Z"/><path class="cls-112" d="M310.9,389c0,4.5-45.5,8.1-101.7,8.1s-101.6-3.6-101.6-8.1,45.5-8.2,101.6-8.2S310.9,384.3,310.9,389Z"/><ellipse class="cls-113" cx="209.2" cy="389" rx="101.4" ry="8.2"/><ellipse class="cls-114" cx="209.2" cy="389" rx="101" ry="8.2"/><ellipse class="cls-115" cx="209.2" cy="389" rx="100.7" ry="8.2"/><ellipse class="cls-116" cx="209.2" cy="389" rx="100.4" ry="8.2"/><path class="cls-117" d="M309.3,389c0,4.5-44.9,8.1-100.1,8.1s-100-3.6-100-8.1,44.9-8.2,100-8.2S309.3,384.5,309.3,389Z"/><ellipse class="cls-118" cx="209.2" cy="389" rx="99.8" ry="8"/><ellipse class="cls-119" cx="209.2" cy="389" rx="99.4" ry="8"/><ellipse class="cls-120" cx="209.2" cy="389" rx="99.3" ry="8"/><path class="cls-121" d="M308.2,389c0,4.4-44.3,8-99,8s-98.9-3.6-98.9-8,44.2-8,98.9-8S308.2,384.5,308.2,389Z"/><path class="cls-122" d="M307.9,389c0,4.4-44.1,8-98.7,8s-98.6-3.5-98.6-8,44.1-8,98.6-8S307.9,384.5,307.9,389Z"/><path class="cls-123" d="M307.6,389c0,4.4-44.1,7.9-98.4,7.9s-98.3-3.5-98.3-7.9,44-7.9,98.3-7.9S307.6,384.6,307.6,389Z"/><ellipse class="cls-124" cx="209.2" cy="389" rx="98" ry="7.9"/><ellipse class="cls-125" cx="209.2" cy="389" rx="97.7" ry="7.9"/><ellipse class="cls-126" cx="209.2" cy="389" rx="97.3" ry="7.9"/><ellipse class="cls-127" cx="209.2" cy="389" rx="97" ry="7.9"/><path class="cls-128" d="M305.9,389c0,4.3-43.2,7.8-96.7,7.8s-96.7-3.5-96.7-7.8,43.3-7.8,96.7-7.8S305.9,384.6,305.9,389Z"/><ellipse class="cls-129" cx="209.2" cy="389" rx="96.4" ry="7.8"/><ellipse class="cls-130" cx="209.2" cy="389" rx="96.1" ry="7.8"/><path class="cls-131" d="M305.1,389c0,4.3-42.9,7.8-95.9,7.8s-95.9-3.5-95.9-7.8,43-7.8,95.9-7.8S305.1,384.6,305.1,389Z"/><path class="cls-132" d="M304.8,389c0,4.3-42.8,7.6-95.6,7.6s-95.5-3.5-95.5-7.6,42.8-7.7,95.5-7.7S304.8,384.7,304.8,389Z"/><path class="cls-133" d="M304.5,389c0,4.3-42.6,7.6-95.3,7.6S114,393.3,114,389s42.6-7.7,95.2-7.7S304.5,384.7,304.5,389Z"/><ellipse class="cls-134" cx="209.2" cy="389" rx="94.9" ry="7.7"/><path class="cls-135" d="M303.9,389c0,4.3-42.4,7.6-94.7,7.6s-94.6-3.3-94.6-7.6,42.3-7.7,94.6-7.7S303.9,384.7,303.9,389Z"/><path class="cls-136" d="M303.5,389c0,4.3-42.1,7.6-94.3,7.6S115,393.3,115,389s42.1-7.7,94.2-7.7S303.5,384.7,303.5,389Z"/><path class="cls-137" d="M303.2,389c0,4.1-42,7.5-94,7.5s-93.9-3.4-93.9-7.5,42.1-7.5,93.9-7.5S303.2,384.7,303.2,389Z"/><path class="cls-138" d="M302.9,389c0,4.1-42,7.5-93.7,7.5s-93.6-3.4-93.6-7.5,42-7.5,93.6-7.5S302.9,384.7,302.9,389Z"/><ellipse class="cls-139" cx="209.2" cy="389" rx="93.3" ry="7.5"/><ellipse class="cls-140" cx="209.2" cy="389" rx="93" ry="7.5"/><ellipse class="cls-141" cx="209.2" cy="389" rx="92.7" ry="7.5"/><path class="cls-142" d="M301.8,389c0,4.1-41.4,7.5-92.4,7.5S117,393.1,117,389s41.4-7.5,92.4-7.5S301.8,384.8,301.8,389Z"/><path class="cls-143" d="M301.4,389c0,4.1-41.2,7.4-92.2,7.4S117,393,117,389s41.2-7.4,92.2-7.4S301.4,384.8,301.4,389Z"/><ellipse class="cls-144" cx="209.2" cy="389" rx="91.9" ry="7.4"/><path class="cls-145" d="M300.8,389c0,4.1-41,7.4-91.6,7.4s-91.5-3.3-91.5-7.4,41-7.4,91.5-7.4S300.8,384.8,300.8,389Z"/><path class="cls-146" d="M300.5,389c0,4.1-40.9,7.4-91.3,7.4S118,393.1,118,389s40.9-7.4,91.2-7.4S300.5,384.8,300.5,389Z"/><path class="cls-147" d="M300.1,389c0,4-40.7,7.4-90.9,7.4s-90.9-3.3-90.9-7.4,40.7-7.4,90.9-7.4S300.1,384.8,300.1,389Z"/><path class="cls-148" d="M299.8,389c0,4-40.5,7.3-90.6,7.3s-90.5-3.3-90.5-7.3,40.5-7.3,90.5-7.3S299.8,384.8,299.8,389Z"/><ellipse class="cls-149" cx="209.2" cy="389" rx="90.3" ry="7.3"/><ellipse class="cls-150" cx="209.2" cy="389" rx="89.9" ry="7.3"/><ellipse class="cls-151" cx="209.2" cy="389" rx="89.6" ry="7.3"/><path class="cls-152" d="M298.5,389c0,4-40,7.3-89.3,7.3s-89.3-3.3-89.3-7.3,40.1-7.3,89.3-7.3S298.5,385,298.5,389Z"/><path class="cls-153" d="M298.4,389c0,4-39.9,7.1-89,7.1s-89-3.2-89-7.1,39.9-7.2,89-7.2S298.4,385,298.4,389Z"/><ellipse class="cls-154" cx="209.2" cy="389" rx="88.8" ry="7.2"/><ellipse class="cls-155" cx="209.2" cy="389" rx="88.5" ry="7.2"/><path class="cls-156" d="M297.4,389c0,3.9-39.4,7.1-88.2,7.1s-88.1-3.1-88.1-7.1,39.4-7.2,88.1-7.2S297.4,385,297.4,389Z"/><path class="cls-157" d="M297.1,389c0,3.9-39.3,7.1-87.9,7.1s-87.8-3.1-87.8-7.1,39.2-7.2,87.8-7.2S297.1,385,297.1,389Z"/><path class="cls-158" d="M296.8,389c0,3.9-39.3,7-87.6,7s-87.5-3.1-87.5-7,39.1-7,87.5-7S296.8,385,296.8,389Z"/><ellipse class="cls-159" cx="209.2" cy="389" rx="87.2" ry="7"/><path class="cls-160" d="M296.1,389c0,3.9-38.9,7-86.9,7s-86.8-3.1-86.8-7,38.9-7,86.8-7S296.1,385,296.1,389Z"/><path class="cls-161" d="M295.8,389c0,3.9-38.8,7-86.6,7s-86.5-3.1-86.5-7,38.8-7,86.5-7S295.8,385.1,295.8,389Z"/><path class="cls-162" d="M295.5,389c0,3.9-38.6,7-86.3,7s-86.2-3.1-86.2-7,38.6-7,86.2-7S295.5,385.1,295.5,389Z"/><path class="cls-163" d="M295.2,389c0,3.9-38.5,6.9-86,6.9s-85.9-3.2-85.9-6.9,38.5-6.9,85.9-6.9S295.2,385.1,295.2,389Z"/><ellipse class="cls-164" cx="209.2" cy="389" rx="85.6" ry="6.9"/><ellipse class="cls-165" cx="209.2" cy="389" rx="85.4" ry="6.9"/><path class="cls-166" d="M294.4,389c0,3.7-38.2,6.9-85.2,6.9s-85.1-3.2-85.1-6.9,38.2-6.9,85.1-6.9S294.4,385.1,294.4,389Z"/><path class="cls-167" d="M294,389c0,3.7-37.9,6.9-84.8,6.9s-84.8-3-84.8-6.9,38-6.9,84.8-6.9S294,385.1,294,389Z"/><path class="cls-168" d="M293.7,389c0,3.7-37.8,6.8-84.5,6.8s-84.4-3.1-84.4-6.8,37.8-6.8,84.4-6.8S293.7,385.1,293.7,389Z"/><path class="cls-169" d="M293.4,389c0,3.7-37.7,6.8-84.2,6.8s-84.1-3.1-84.1-6.8,37.6-6.8,84.1-6.8S293.4,385.2,293.4,389Z"/><path class="cls-170" d="M293.1,389c0,3.7-37.5,6.8-83.9,6.8s-83.8-3.1-83.8-6.8,37.5-6.8,83.8-6.8S293.1,385.2,293.1,389Z"/><path class="cls-171" d="M292.7,389c0,3.7-37.3,6.8-83.5,6.8s-83.5-3.1-83.5-6.8,37.4-6.8,83.5-6.8S292.7,385.2,292.7,389Z"/><path class="cls-172" d="M292.4,389c0,3.7-37.3,6.8-83.2,6.8s-83.1-3.1-83.1-6.8,37.3-6.8,83.1-6.8S292.4,385.2,292.4,389Z"/><path class="cls-173" d="M292.1,389c0,3.7-37.2,6.6-82.9,6.6s-82.8-3-82.8-6.6,37.1-6.7,82.8-6.7S292.1,385.2,292.1,389Z"/><path class="cls-174" d="M291.8,389c0,3.6-37,6.6-82.6,6.6s-82.5-3-82.5-6.6,37-6.7,82.5-6.7S291.8,385.2,291.8,389Z"/><ellipse class="cls-175" cx="209.2" cy="389" rx="82.2" ry="6.6"/><ellipse class="cls-176" cx="209.2" cy="389" rx="81.9" ry="6.6"/><path class="cls-177" d="M291,389c0,3.6-36.5,6.6-81.8,6.6s-81.7-3-81.7-6.6,36.5-6.7,81.7-6.7S291,385.2,291,389Z"/><path class="cls-178" d="M290.7,389c0,3.6-36.4,6.5-81.5,6.5s-81.4-2.9-81.4-6.5,36.4-6.5,81.4-6.5S290.7,385.3,290.7,389Z"/><path class="cls-179" d="M290.3,389c0,3.6-36.3,6.5-81.1,6.5s-81.1-2.9-81.1-6.5,36.4-6.5,81.1-6.5S290.3,385.3,290.3,389Z"/><path class="cls-180" d="M290,389c0,3.6-36.2,6.5-80.8,6.5s-80.7-2.9-80.7-6.5,36.2-6.5,80.7-6.5S290,385.3,290,389Z"/><path class="cls-181" d="M289.7,389c0,3.6-36.1,6.5-80.5,6.5s-80.4-2.9-80.4-6.5,36-6.5,80.4-6.5S289.7,385.3,289.7,389Z"/><path class="cls-182" d="M289.4,389c0,3.6-35.9,6.5-80.2,6.5s-80.1-2.9-80.1-6.5,35.9-6.5,80.1-6.5S289.4,385.3,289.4,389Z"/><path class="cls-183" d="M289,389c0,3.5-35.7,6.4-79.8,6.4s-79.8-2.9-79.8-6.4,35.8-6.4,79.8-6.4S289,385.3,289,389Z"/><path class="cls-184" d="M288.7,389c0,3.5-35.5,6.4-79.5,6.4s-79.4-2.9-79.4-6.4,35.5-6.4,79.4-6.4S288.7,385.3,288.7,389Z"/><path class="cls-185" d="M288.4,389c0,3.5-35.4,6.4-79.2,6.4s-79.1-2.9-79.1-6.4,35.4-6.4,79.1-6.4S288.4,385.3,288.4,389Z"/><path class="cls-186" d="M288.1,389c0,3.5-35.4,6.4-78.9,6.4s-78.8-2.9-78.8-6.4,35.4-6.4,78.8-6.4S288.1,385.3,288.1,389Z"/><path class="cls-187" d="M287.9,389c0,3.5-35.2,6.4-78.5,6.4s-78.5-2.9-78.5-6.4,35.2-6.4,78.5-6.4S287.9,385.5,287.9,389Z"/><path class="cls-188" d="M287.6,389c0,3.5-35.1,6.3-78.4,6.3s-78.3-2.9-78.3-6.3,35.1-6.3,78.3-6.3S287.6,385.5,287.6,389Z"/><path class="cls-189" d="M287.3,389c0,3.5-34.9,6.3-78.1,6.3s-78-2.9-78-6.3,34.9-6.3,78-6.3S287.3,385.5,287.3,389Z"/><ellipse class="cls-190" cx="209.2" cy="389" rx="77.7" ry="6.3"/><path class="cls-191" d="M286.6,389c0,3.5-34.6,6.3-77.4,6.3s-77.4-2.8-77.4-6.3,34.6-6.3,77.4-6.3S286.6,385.5,286.6,389Z"/><path class="cls-192" d="M286.3,389c0,3.4-34.4,6.3-77.1,6.3s-77-2.8-77-6.3,34.4-6.3,77-6.3S286.3,385.5,286.3,389Z"/></g><path class="cls-193" d="M167.4,276.5,190.9,371l-16.4-.6-10.2-48.1c-5.3-19.9-27.5-54-27.5-54Z"/><path class="cls-193" d="M206.2,277.6l17.5,97.2,15.5-4.4L231,322.1c-2.3-20.2,0-49.8,0-49.8Z"/><path class="cls-194" d="M127.8,137.5c-2.1,17.4-5.8,101.5-5.1,102.3l115.8,13.1c-.1-3.4,17.4-103.8,15.5-109.5l-60.4,13.1Z"/><polygon class="cls-195" points="153.6 80.4 188.5 81.4 188.6 74 151.6 75 153.6 80.4"/><polygon class="cls-196" points="154.9 78.4 189.8 79.4 189.8 72 152.8 73 154.9 78.4"/><polygon class="cls-195" points="235.9 89.1 204.6 81.3 207.3 74.8 239.8 84.8 235.9 89.1"/><polygon class="cls-196" points="234.3 87.1 203.1 79.3 205.7 72.8 238.2 82.8 234.3 87.1"/><path class="cls-193" d="M122.7,239.8s-.3,22.6,9.3,29,65.5,23.2,97.7,5.5c6.9-4.6,9.8-16.1,9-23Z"/><path class="cls-197" d="M180.1,93.1c-.5,3.9-3.5,6.7-6.6,6.5s-5.1-3.6-4.5-7.4,3.6-6.8,6.6-6.5S180.6,89.2,180.1,93.1Z"/><ellipse class="cls-197" cx="211.6" cy="95.2" rx="7.1" ry="5.3" transform="translate(74.5 282.4) rotate(-78)"/><path d="M178.2,91.7c-.5,3.3-2.4,5.6-4.4,5.5s-3.2-2.9-2.7-6.1,2.4-5.7,4.4-5.6S178.7,88.6,178.2,91.7Z"/><path d="M215.4,94.5c-.5,3.2-2.5,5.6-4.4,5.5s-3-2.9-2.7-6.2,2.4-5.6,4.3-5.5S215.8,91.2,215.4,94.5Z"/><path class="cls-196" d="M175.8,368.5l-24.6,6.1s-19.5-2.4-23.7,6.1c-2.7,5.7-3.4,7.7-3.4,7.7l69.4-.3c.3-4.9-1.8-18.2-1.8-18.2Z"/><path class="cls-196" d="M238.8,368.5l24.7,6.1s19.4-2.4,23.6,6.1c2.6,5.7,3.4,7.7,3.4,7.7l-69.4-.3c-.3-4.9,1.8-18.2,1.8-18.2Z"/><polygon class="cls-198" points="218.4 244.6 225.8 260.7 230 266.9 272.3 255.1 282.3 248 270.1 230.3 270.1 230.3 270.1 230.3 268.6 228.3 263.9 228.8 242.4 222.5 241.4 231.7 218.4 244.6"/><path class="cls-199" d="M270.1,230.3h0l-1.5-2-4.7.5-8.6-2c1.4,3.1,10.1,21.3,14.9,28.8l2.1-.6,5.5-3.9,4-4Z"/><path class="cls-200" d="M252.7,152.9c-.2,2-.3,5-.8,8.7,41.7,23.9,28.9,43.5,6.3,63.4,0,0,11.2,24,16.2,30.9C352.8,210.5,270.9,162.6,252.7,152.9Z"/><path class="cls-201" d="M259.9,70.5c0-8.7-.8-15.4-2.2-19.8l-20.6-.6-3.6-.2c-22.8-.7-45.8-1.5-68.7-2.1-2.2,0-4.3-.1-6.6-.3l-24.6-.7a118.6,118.6,0,0,0-2.9,17.9c-.8,7.6-1.3,16.5-1.9,26.4,3.5-3.3,5.3-12.4,5.8-14.3,1.8-7.1,3.2-14.2,9.3-19.9,12.6-11.4,21.4-1.1,32.7,5.3a74.6,74.6,0,0,0,38.8,9.7,84.4,84.4,0,0,0,20.2-3.2c3.7-1,10.3-5,14.5-4,5.8,1.4,5.6,9.7,6.1,13.3s-.9,11.8,2.1,13.3l.8.4A177.6,177.6,0,0,0,259.9,70.5Z"/><path class="cls-196" d="M269.9,62.5c.2,5-1,10.1-2.6,15-1.1,3.3-3.4,10.6-7.5,12.2-2.3-3.3-.5-7.4-1-10.9s-.8-7.8-2.9-11.1c-4.5-6.7-13.4-11.6-9.7-19.9,2.8-6,11.1-4.8,16.5-1.1S269.7,57.1,269.9,62.5Z"/><path class="cls-202" d="M268,53.1a15.5,15.5,0,0,0-5.3-6.4,17.2,17.2,0,0,0-4.9-2.4,22.8,22.8,0,0,0-11.1,12.1c2.3,3.9,6.5,7.3,9.2,11.3s2.6,7.4,2.9,11.1-1.3,7.5.8,10.6c4.7-5.4,3.7-16.3,2.1-21.2-1.1-3.3-3.1-6-1.1-9.5A15.7,15.7,0,0,1,268,53.1Z"/><path class="cls-196" d="M152,26.6c-3.4,4.3-4.5,10-2.1,14.7s9.3,6.1,15.1,8.1a90.4,90.4,0,0,1,17.2,8.1c5.6,3.5,11.3,7.2,18.4,8.9,10.6,2.5,22.2,2.2,32.9.6,27.2-4.2,45.2-35.8,28.2-54.6,1.9,10.3-6.3,12.2-15.6,16.8C255.6,20.9,248.3,4.8,235,0c16.6,28.9-26.2,23.2-47.2,21.2C175.9,20.2,159.4,17.4,152,26.6Z"/><path class="cls-196" d="M137.3,32.5a24.4,24.4,0,0,1,10.5,1.6c3.8,1.5,7.9,2.9,11.1,5s7.1,6.1,6.3,8.6-2.9,1-5,.8c-3.9-.1-8.4,0-11.9,1.3-11.9,4.5-15.2,16.8-17.1,26-.5,2-.3,4.7-2.2,6.4-5.2-2.9-5-12.1-6.2-16.6-2.2-9.3-2.7-22.1,5.7-29.7A13.7,13.7,0,0,1,137.3,32.5Z"/><path class="cls-202" d="M261.5,12.7a11.1,11.1,0,0,1,.4,3.5c1.1,3.6,2.4,7.1,1.7,11.3a38.9,38.9,0,0,1-6.1,14.9c-4.2,6-9.8,12.4-18.3,15.2s-18.1,4.6-28.4,2.7-17.8-5.7-27-8.9-17.7-8.9-27.8-8.2a17.6,17.6,0,0,0-4,.6c3.2,3,8.5,4.1,13.2,5.7a93.4,93.4,0,0,1,17.2,8.1c5.6,3.5,11.2,7.3,18.3,8.9,10.6,2.5,22.2,2.2,33,.6C260.6,63,283.9,29,261.5,12.7Z"/><path class="cls-202" d="M155.8,43.2c-8.2.5-18.5,5.2-22.2,11.1-5.3,8.3-3.4,17.3-3.4,26.2.7-1.5.7-3.4,1.2-4.7,1.9-9.1,5.1-21.5,17-26,3.4-1.3,7.9-1.4,11.9-1.3,2.1.2,4.4,1,5-.8s-.3-2.4-1.3-3.8A27.9,27.9,0,0,0,155.8,43.2Z"/><path class="cls-203" d="M142.9,40.3c5-.3,7.1-3.5,2-5.3a13.9,13.9,0,0,0-14.7,4.5c-2.9,3.7-1.7,6.5-2.5,10.3C128.6,43.4,135.5,40.6,142.9,40.3Z"/><path class="cls-203" d="M221,44c-10.6,3.8-18.4,1.4-28.3-2-4.4-1.5-8.7-2.5-13.1-4.1-8.3-2.9-16.7-6.2-25.9-2.9-.3-4,2.8-7.9,6.8-10.3A21.4,21.4,0,0,1,172.4,22c6.8.2,14.3,4.5,20.6,2a17.8,17.8,0,0,1-11.8,3.2c-3.7-.2-9.6-1.9-11.9,1.3,8.4-3.3,22.1,5.9,29.2,8.1,10.7,3.5,23,6.7,32.9-.1C227.7,39.9,226.1,42.3,221,44Z"/><path class="cls-204" d="M145.8,102.5s51.5,22.6,92.9,4c1.3,19.8-17.7,42.3-51,39.6C159.2,143.9,144.4,129.2,145.8,102.5Z"/><path class="cls-205" d="M160.8,137.9c6.8,4.6,15.8,7.4,26.9,8.2s21.2-1.1,29.1-5c-7.7-6.9-10.1-9.3-26.2-9.4C169.3,131.7,166.4,135.6,160.8,137.9Z"/><path class="cls-3" d="M145.8,102.5a52.3,52.3,0,0,0,0,5.6c9.4,4.7,49.4,22.7,92.2,6.7a28.8,28.8,0,0,0,.7-8.2C197.3,125.1,145.8,102.5,145.8,102.5Z"/><path class="cls-206" d="M145.8,102.5a48.6,48.6,0,0,0,0,5.4c4.9-4.3,19.8,5.4,47.2,7.3s42.3-7.3,45.2-.7a30.9,30.9,0,0,0,.6-8C197.3,125.1,145.8,102.5,145.8,102.5Z"/><path class="cls-3" d="M160,137.2c6.9,5,16.1,8.1,27.7,8.9,13.5,1.2,24.8-2,33.1-7.2C195.4,146.1,166.3,136.4,160,137.2Z"/><polygon class="cls-199" points="184.9 222.9 192.7 233.2 214.9 214.6 203.4 169.7 202.2 157.3 184.9 222.9"/><polygon class="cls-196" points="179.5 162.7 165.5 209.7 187.4 230.2 210.5 212 200.2 163.2 179.5 162.7"/><polygon class="cls-196" points="177.9 152.4 176.9 162.8 202.3 165.3 203.1 152.9 177.9 152.4"/><polygon class="cls-207" points="201.2 167.3 200.2 163.2 179.5 162.7 178.7 165.5 201.2 167.3"/><polygon class="cls-196" points="175.8 154.2 175 163.8 204.7 166.3 205.5 154.9 175.8 154.2"/><path class="cls-208" d="M205.5,188.4l-28.3-18.7-3.5,11.9,34.6,20.1Zm-34.6,3.3-1.9,6.6,31.1,22,7.9-6.2Z"/><path class="cls-209" d="M200.6,182.8a3.3,3.3,0,0,1-3.4,2.7l-24.6-1a3.1,3.1,0,0,1-3.1-3h0a3.2,3.2,0,0,1,3.4-2.7l24.6,1c1.8.1,3.2,1.3,3.1,3Z"/><path class="cls-3" d="M183.2,182.1c0,1-.7,1.8-1.2,1.8l-7.5-.4c-.5,0-1-.9-.8-1.9h0c0-1,.6-1.7,1.1-1.7l7.6.4c.5,0,.8.8.8,1.8Z"/><path class="cls-210" d="M31.1,185.9s.5,28.9,57.6,19.9c54.4-8.5,30.9-62.8-4.6-58.8Z"/><path class="cls-201" d="M99.2,184.1c-4.7-4.8-31.1-6.5-56.3-6.9l-11.8,8.7s1.8,11.2,16.1,17.9c6-.7,19-3.2,19.3-11C84.5,196.4,108.4,194.1,99.2,184.1Z"/><path class="cls-193" d="M101.1,183.3c.2,3.1-2.9,5.7-6.9,5.9L31.3,191c-4,.2-7.4-2.3-7.6-5.5L19.2,93.8c-.1-3.1,2.9-5.7,6.9-5.9L89,86.1c4.1-.2,7.4,2.2,7.6,5.3Z"/><ellipse class="cls-211" cx="62.2" cy="180.6" rx="7.2" ry="5.6"/><path class="cls-193" d="M68,180.5c-.2-2.5-2.9-4.5-6.1-4.4s-5.7,2.3-5.7,4.7,2.9,4.5,6,4.3S68.1,183,68,180.5Z"/><path class="cls-212" d="M96.3,169.3a3,3,0,0,1-3.2,2.7l-62.8,1.7c-1.8,0-3.4-1-3.4-2.5L23.6,99c0-1.4,1.2-2.7,3.2-2.7l62.7-1.7c1.8,0,3.4,1,3.4,2.5Z"/><path class="cls-211" d="M63.9,91.2a1.5,1.5,0,0,1-1.6,1.4l-8.7.2c-.9,0-1.7-.5-1.7-1.2h0a1.4,1.4,0,0,1,1.6-1.4l8.7-.3c.9,0,1.7.5,1.7,1.3Z"/><path class="cls-213" d="M93.9,118.2l-1-21.1c0-1.4-1.6-2.5-3.4-2.5L26.8,96.3A3,3,0,0,0,23.6,99L26,149.6C39.8,143.3,69.1,129.5,93.9,118.2Z"/><path class="cls-201" d="M58.5,173a12.1,12.1,0,0,0-10.8-11.4C63.3,139.5,30.3,142,30.3,142l8.2,31.6Z"/><path class="cls-210" d="M22.9,186.3l23.8-4.7c7.3-1.8,11.9-17.3.2-19.3s-32,3.5-36.2,4.8S-1.7,182.9,22.9,186.3Z"/><path class="cls-210" d="M31,202.3c9,1.4,21.8,1.2,21.8,1.2,6.8-.2,16.1-12.2,6.8-16.3s-28.5-3.8-32.5-3.7S10.4,199.1,31,202.3Z"/><path class="cls-210" d="M16.2,166.2l22.6-4.5c7-1.8,11.3-17.2.2-19.2S8.4,145.4,4.6,147-7.3,162.7,16.2,166.2Z"/><path class="cls-210" d="M120.9,176.1c-10.9-28.2,16.9-37.9-12.7-41.3-24.1-2.7-15.6,31.4-5.6,37.3"/></g></g></svg>