<svg xmlns="http://www.w3.org/2000/svg" viewBox="0 0 62.8 62.8"><defs><style>.cls-1{fill:#12afaf;}.cls-2{fill:#fff;}</style></defs><title>servicio-2</title><g id="Capa_2" data-name="Capa 2"><g id="Pagina_Inicial_movil" data-name="Pagina Inicial movil"><circle class="cls-1" cx="31.4" cy="31.4" r="31.4"/><path class="cls-2" d="M26.5,32.8V28a1.4,1.4,0,0,1,.2-.6l.6-.2h.3V25.6a3.8,3.8,0,0,1,7.6,0v1.6h.3l.6.2a1.4,1.4,0,0,1,.2.6v4.9a1.4,1.4,0,0,1-.2.6l-.6.2H27.4l-.6-.2A.9.9,0,0,1,26.5,32.8Zm2.7-5.7h4.3V25.5a2.1,2.1,0,1,0-4.2,0v1.6h-.1Z"/><path class="cls-2" d="M13.4,40.3V19.8a2.9,2.9,0,0,1,.9-2.1,2.7,2.7,0,0,1,2.1-.9h30a2.7,2.7,0,0,1,2.1.9,2.7,2.7,0,0,1,.9,2.1V40.3a2.9,2.9,0,0,1-.9,2.1,2.7,2.7,0,0,1-2.1.9H36.3a3.2,3.2,0,0,0,.3,1.4l.6,1.3.3.8A1.2,1.2,0,0,1,36.3,48H26.5a1.2,1.2,0,0,1-.8-2l.6-1.3.3-1.5H16.4a2.7,2.7,0,0,1-2.1-.9A2.5,2.5,0,0,1,13.4,40.3Zm2.4-4.8c0,.2,0,.3.1.4l.5.2h30l.5-.2c.1-.1.1-.2.1-.4V19.9c0-.2,0-.3-.1-.4l-.5-.2h-30l-.5.2c-.1.1-.1.2-.1.4V35.5Z"/></g></g></svg>