<svg xmlns="http://www.w3.org/2000/svg" viewBox="0 0 62.8 62.8"><defs><style>.cls-1{fill:#12afaf;}.cls-2{fill:#fff;}</style></defs><title>servicio-3</title><g id="Capa_2" data-name="Capa 2"><g id="Pagina_Inicial_movil" data-name="Pagina Inicial movil"><circle class="cls-1" cx="31.4" cy="31.4" r="31.4"/><path class="cls-2" d="M26.5,36.6V31.7a1.4,1.4,0,0,1,.2-.6l.6-.2h.3V29.3a3.8,3.8,0,0,1,7.6,0v1.6h.3l.6.2a1.4,1.4,0,0,1,.2.6v4.9a1.4,1.4,0,0,1-.2.6l-.6.2H27.3l-.6-.2A.7.7,0,0,1,26.5,36.6Zm2.7-5.7h4.3V29.3a2.1,2.1,0,1,0-4.2,0v1.6h-.1Z"/><path class="cls-2" d="M12.1,39.5a20.6,20.6,0,0,1,0-16.4,21.9,21.9,0,0,1,4.5-6.7,20.3,20.3,0,0,1,6.7-4.5,20.6,20.6,0,0,1,16.4,0,21.9,21.9,0,0,1,6.7,4.5,20.3,20.3,0,0,1,4.5,6.7,20.6,20.6,0,0,1,0,16.4,21.9,21.9,0,0,1-4.5,6.7,21,21,0,0,1-23.1,4.4,21.9,21.9,0,0,1-6.7-4.5A21.5,21.5,0,0,1,12.1,39.5Zm3.5-16.7a18.3,18.3,0,0,0,0,17l4.5-4.5a13.4,13.4,0,0,1-.7-3.9,13.4,13.4,0,0,1,.7-3.9l-4.5-4.6h0Zm9.6,2.1a9,9,0,0,0,.1,12.7,9.1,9.1,0,0,0,12.8-.1,9,9,0,0,0-.2-12.7,8.8,8.8,0,0,0-6.3-2.6,9.1,9.1,0,0,0-6.4,2.7Zm-2.1-9.6,4.5,4.5a13.4,13.4,0,0,1,3.9-.7,13.4,13.4,0,0,1,3.9.7L40,15.3a18,18,0,0,0-17,.1Zm0,31.9a18.3,18.3,0,0,0,17,0l-4.5-4.5a13.4,13.4,0,0,1-3.9.7,13.4,13.4,0,0,1-3.9-.7ZM43,35.2l4.5,4.5a18.3,18.3,0,0,0,0-17L43,27.2a12.2,12.2,0,0,1-.1,8Z"/></g></g></svg>