<svg xmlns="http://www.w3.org/2000/svg" viewBox="0 0 62.2 62.2"><defs><style>.cls-1{fill:#12afaf;}.cls-2{fill:#fff;}</style></defs><title>serivicio-1</title><g id="Capa_2" data-name="Capa 2"><g id="Pagina_Inicial_movil" data-name="Pagina Inicial movil"><circle class="cls-1" cx="31.1" cy="31.1" r="31.1"/><path class="cls-2" d="M14.1,32.8V29.5a.3.3,0,0,1,0-.4l.2-.2,2.8-.4.6-1.4L16.1,25a.8.8,0,0,1,0-.8l1.5-1.6A3,3,0,0,1,19,21.5h.4l2.1,1.6,1.4-.6c.1-1,.2-2,.4-3a.8.8,0,0,1,.5-.7h3.4a.8.8,0,0,1,.4.4.8.8,0,0,1,.2.5l.4,2.8,1.4.6,2.1-1.6h.7C34.1,23.1,35,24,35,24.4a.6.6,0,0,1-.1.4l-.8,1-.8,1.1.6,1.5,2.7.4.4.2.2.4v3.3l-.2.4-.4.2-2.8.4-.6,1.4,1.6,2.1a.9.9,0,0,1,0,.8l-1.5,1.6a3,3,0,0,1-1.4,1.1h-.4l-2.1-1.6-1.4.6c-.1,1.3-.3,2.4-.4,3s-.2.5-.5.6H23.8a.8.8,0,0,1-.4-.4.8.8,0,0,1-.2-.4l-.4-2.8-1.4-.6-2.1,1.6h-.7c-1.7-1.6-2.6-2.5-2.6-2.9a.6.6,0,0,1,.1-.4l.7-.9.8-1.1L17,33.9l-2.7-.4-.2-.2C14,33.2,14.1,33,14.1,32.8Zm8-4.9a4.6,4.6,0,1,0,3.2-1.4,5,5,0,0,0-3.1,1.4ZM37,23.8c-1.8-.2-2.9-.4-2.9-.6V20.7c0-.2,1.1-.4,2.9-.6l.7-.9a10.6,10.6,0,0,1-.9-2.5h.1l.6-.4,1.1-.6.5-.3a3,3,0,0,1,.8.8l.9,1.2h1.1a16.3,16.3,0,0,1,1.7-2h.1l2.2,1.2H46a10.6,10.6,0,0,1-.9,2.5,3.6,3.6,0,0,1,.4.9c1.8.2,2.5.4,2.5.6v2.5c0,.2-.7.4-2.5.6a4.1,4.1,0,0,1-.5.9,10.9,10.9,0,0,1,1,2.5h-.1l-2.2,1.3a3,3,0,0,1-.8-.8L42,26.4H40.9L40,27.6l-.8.8L37,27.1h-.1a7.3,7.3,0,0,1,.8-2.5l-.6-.9H37Zm0,18.4c-1.8-.2-2.9-.4-2.9-.6V39.1c0-.2,1.1-.4,2.9-.6l.7-.9a10.6,10.6,0,0,1-.9-2.5h.1l.6-.4,1.1-.6.5-.3a3,3,0,0,1,.8.8l.9,1.2h1.1a16.3,16.3,0,0,1,1.7-2h.1L45.9,35H46a10.6,10.6,0,0,1-.9,2.5,3.6,3.6,0,0,1,.4.9c1.8.2,2.5.4,2.5.6v2.5c0,.2-.7.4-2.5.6a4.1,4.1,0,0,1-.5.9,10.9,10.9,0,0,1,1,2.5h-.1l-2.2,1.3a3,3,0,0,1-.8-.8L42,44.8H40.9L40,46a3,3,0,0,1-.8.8L37,45.5h-.1a7.3,7.3,0,0,1,.8-2.5l-.6-.9H37ZM39.2,22a2.4,2.4,0,0,0,2.2,2.4,2.3,2.3,0,0,0,2.4-2.3,2.2,2.2,0,0,0-2.2-2.3,2,2,0,0,0-1.7.6,2.1,2.1,0,0,0-.7,1.5Zm0,18.4a2.4,2.4,0,0,0,2.2,2.4,2.3,2.3,0,0,0,2.4-2.3,2.2,2.2,0,0,0-2.2-2.3,2,2,0,0,0-1.7.6,2.1,2.1,0,0,0-.7,1.5Z"/></g></g></svg>